<?xml version="1.0" encoding="utf-8"?>
<!-- Generator: Adobe Illustrator 23.0.2, SVG Export Plug-In . SVG Version: 6.00 Build 0)  -->
<svg version="1.1" id="Layer_1" xmlns="http://www.w3.org/2000/svg" xmlns:xlink="http://www.w3.org/1999/xlink" x="0px" y="0px"
	 viewBox="0 0 500.5 223.11" style="enable-background:new 0 0 500.5 223.11;" xml:space="preserve">
<style type="text/css">
	.st0{fill:#CCCCCC;}
	.st1{fill:#F78600;}
	.st2{opacity:0.2;}
	.st3{fill:#00ACED;}
	.st4{fill:#60C126;}
	.st5{fill:none;stroke:#CCCCCC;stroke-miterlimit:10;}
	.st6{fill:#FFFFFF;}
	.st7{fill:none;stroke:#CCCCCC;stroke-width:1.0107;stroke-miterlimit:10;}
	.st8{fill:#FFFFFF;stroke:#60C126;stroke-width:1.0107;stroke-miterlimit:10;}
	.st9{fill:#FFFFFF;stroke:#F78600;stroke-width:1.0107;stroke-miterlimit:10;}
</style>
<polygon class="st0" points="362.5,132.14 363.5,132.57 363.5,94.32 362.5,95.09 "/>
<g>
	<polygon class="st0" points="362.5,184.26 363.5,185.03 363.5,145.02 362.5,145.45 	"/>
	<polygon class="st0" points="362.5,52.61 362.5,82.8 363.5,82.96 363.5,53.61 499.5,53.61 499.5,221.61 363.5,221.61 363.5,196.39 
		362.5,196.55 362.5,222.61 500.5,222.61 500.5,52.61 	"/>
</g>
<path class="st0" d="M166.61,157.67c-1.64-6.56-2.53-13.42-2.53-20.48c0-7.83,1.09-15.4,3.1-22.6l-1.1,0.18
	c-1.95,7.15-3.01,14.66-3.01,22.42c0,7,0.86,13.79,2.46,20.3L166.61,157.67z"/>
<g>
	<g>
		<path class="st1" d="M230.71,147.86c0-0.77-0.55-1.16-1.65-1.16h-1.22v2.42h1.28c0.54,0,0.94-0.1,1.2-0.31
			C230.58,148.6,230.71,148.28,230.71,147.86z"/>
	</g>
	<g>
		<path class="st1" d="M220.81,165.99c-0.34,0.21-0.51,0.54-0.51,0.99c0,0.35,0.11,0.62,0.32,0.8s0.51,0.28,0.89,0.28
			c0.61,0,1.08-0.17,1.43-0.5s0.52-0.8,0.52-1.39v-0.58l-0.97,0.04C221.71,165.65,221.15,165.77,220.81,165.99z"/>
	</g>
	<g>
		<path class="st1" d="M233.11,163.02c-0.52,0-0.93,0.17-1.23,0.5s-0.49,0.8-0.54,1.39h3.36c0-0.61-0.14-1.08-0.41-1.41
			S233.62,163.02,233.11,163.02z"/>
	</g>
	<g>
		<path class="st1" d="M247.2,142.96c-0.78,0-1.37,0.26-1.77,0.79c-0.4,0.53-0.6,1.31-0.6,2.35s0.2,1.82,0.59,2.34
			c0.39,0.52,0.98,0.79,1.77,0.79c1.57,0,2.35-1.04,2.35-3.13C249.54,144,248.76,142.96,247.2,142.96z"/>
	</g>
	<g>
		<path class="st1" d="M273.43,145.27c0.3-0.21,0.44-0.53,0.44-0.98c0-0.44-0.15-0.75-0.45-0.94s-0.77-0.28-1.41-0.28h-0.6v2.51
			h0.63C272.67,145.58,273.13,145.48,273.43,145.27z"/>
	</g>
	<g>
		<path class="st1" d="M238.58,145.27c0.3-0.21,0.45-0.53,0.45-0.98c0-0.44-0.15-0.75-0.45-0.94c-0.3-0.19-0.77-0.28-1.41-0.28h-0.6
			v2.51h0.63C237.83,145.58,238.29,145.48,238.58,145.27z"/>
	</g>
	<g>
		<path class="st1" d="M230.14,144.89c0.24-0.17,0.36-0.44,0.36-0.82c0-0.36-0.13-0.61-0.39-0.77c-0.26-0.15-0.67-0.23-1.23-0.23
			h-1.04v2.06h1.14C229.51,145.14,229.9,145.06,230.14,144.89z"/>
	</g>
	<g>
		<path class="st1" d="M290.41,163.02c-0.52,0-0.93,0.17-1.23,0.5s-0.49,0.8-0.54,1.39h3.36c0-0.61-0.14-1.08-0.41-1.41
			S290.91,163.02,290.41,163.02z"/>
	</g>
	<g>
		<path class="st1" d="M358.52,189.46l-7.31-2.07c0.14-0.74,0.22-1.5,0.22-2.28c0-4.19-2.09-7.89-5.28-10.15
			c0.01,0.01,0.01,0.02,0.02,0.02c-0.83-1.17-1.84-2.2-3.02-3.02c-2.25-3.19-5.96-5.28-10.14-5.28c-6.72,0-12.19,5.36-12.4,12.03
			l-6.87-1.95c6.68-10.98,10.64-23.79,11-37.5l3.86,0c0.09,6.78,5.62,12.26,12.41,12.26c6.85,0,12.42-5.57,12.42-12.42
			c0,0.06-0.01,0.12-0.01,0.18l6.61,0.01v3.96l10.33-4.46l-10.33-4.46v3.96l-6.64-0.01c-0.43-6.47-5.81-11.6-12.38-11.6
			c-6.57,0-11.94,5.12-12.38,11.58l-3.87,0c0-0.36,0.03-0.71,0.03-1.07c0-12.73-3.14-24.73-8.65-35.28l7.23-2.05
			c0.17,0.13,0.32,0.27,0.49,0.39c0.83,1.17,1.85,2.19,3.02,3.02c-0.01-0.01-0.02-0.01-0.02-0.02c2.25,3.19,5.95,5.28,10.14,5.28
			c6.85,0,12.42-5.57,12.42-12.42c0-1.41-0.25-2.76-0.69-4.02c0.06,0.18,0.13,0.35,0.18,0.53l9.6-2.72l0.94,3.75l8.93-6.85
			l-11.11-1.8l0.99,3.93l-9.67,2.74c-0.89-2.31-2.46-4.29-4.45-5.7c0.01,0.01,0.01,0.02,0.02,0.02c-0.83-1.17-1.84-2.2-3.02-3.02
			c-2.25-3.19-5.96-5.28-10.14-5.28c-6.85,0-12.42,5.57-12.42,12.42c0,3.53,1.5,6.71,3.87,8.97l-6.79,1.92
			c-12.89-23.87-38.13-40.09-67.16-40.09c-42.13,0-76.28,34.15-76.28,76.28c0,42.13,34.15,76.28,76.28,76.28
			c27.26,0,51.17-14.31,64.66-35.83l7.46,2.12c0.21,3.92,2.22,7.36,5.24,9.49c0.83,1.17,1.85,2.19,3.02,3.02
			c-0.01-0.01-0.02-0.01-0.02-0.02c2.25,3.19,5.95,5.28,10.14,5.28c5.72,0,10.54-3.9,11.98-9.17c0,0,0,0,0,0l7.3,2.07l-0.99,3.93
			l11.11-1.8l-8.93-6.85L358.52,189.46z M341,127.7c6.29,0,11.41,5.12,11.41,11.41s-5.12,11.41-11.41,11.41s-11.41-5.12-11.41-11.41
			S334.71,127.7,341,127.7z M345.57,88.59c1.76,2.01,2.84,4.63,2.84,7.51c0,6.29-5.12,11.41-11.41,11.41c-2.88,0-5.5-1.08-7.51-2.84
			c1.4,0.55,2.92,0.85,4.51,0.85c6.85,0,12.42-5.57,12.42-12.42C346.42,91.51,346.12,89.99,345.57,88.59z M342.56,85.58
			c1.77,2.01,2.86,4.64,2.86,7.53c0,6.29-5.12,11.41-11.41,11.41c-2.88,0-5.51-1.08-7.53-2.86c1.4,0.55,2.93,0.87,4.53,0.87
			c6.85,0,12.42-5.57,12.42-12.42C343.42,88.51,343.11,86.98,342.56,85.58C342.56,85.58,342.56,85.58,342.56,85.58z M319.59,90.11
			c0-6.29,5.12-11.41,11.41-11.41s11.41,5.12,11.41,11.41s-5.12,11.41-11.41,11.41S319.59,96.4,319.59,90.11z M269.45,141.46h2.7
			c1.26,0,2.19,0.23,2.8,0.69c0.6,0.46,0.91,1.16,0.91,2.09c0,0.55-0.15,1.03-0.45,1.46c-0.3,0.42-0.73,0.76-1.28,1
			c1.4,2.09,2.31,3.43,2.73,4.04h-2.18l-2.21-3.56h-1.05v3.56h-1.97V141.46z M234.6,141.46h2.7c1.26,0,2.19,0.23,2.8,0.69
			c0.61,0.46,0.91,1.16,0.91,2.09c0,0.55-0.15,1.03-0.45,1.46c-0.3,0.42-0.72,0.76-1.28,1c1.4,2.09,2.31,3.43,2.73,4.04h-2.18
			l-2.22-3.56h-1.05v3.56h-1.97V141.46z M225.87,141.46h2.89c1.32,0,2.27,0.19,2.87,0.56c0.59,0.38,0.89,0.97,0.89,1.79
			c0,0.55-0.13,1.01-0.39,1.36c-0.26,0.36-0.61,0.57-1.04,0.64v0.06c0.59,0.13,1.01,0.38,1.27,0.74c0.26,0.36,0.39,0.84,0.39,1.43
			c0,0.85-0.31,1.51-0.92,1.98s-1.44,0.71-2.49,0.71h-3.47V141.46z M213.09,168.23c-0.55,0.42-1.29,0.63-2.23,0.63
			c-1.02,0-1.8-0.13-2.34-0.39v-0.96c0.35,0.15,0.73,0.27,1.15,0.35s0.82,0.13,1.23,0.13c0.66,0,1.16-0.13,1.5-0.38
			s0.5-0.6,0.5-1.05c0-0.3-0.06-0.54-0.18-0.73s-0.32-0.36-0.6-0.52s-0.7-0.34-1.27-0.54c-0.8-0.29-1.37-0.62-1.71-1.01
			s-0.51-0.9-0.51-1.53c0-0.66,0.25-1.19,0.74-1.58s1.15-0.59,1.97-0.59c0.85,0,1.63,0.16,2.35,0.47l-0.31,0.87
			c-0.71-0.3-1.39-0.45-2.06-0.45c-0.53,0-0.94,0.11-1.24,0.34s-0.45,0.54-0.45,0.94c0,0.3,0.05,0.54,0.16,0.73s0.29,0.36,0.55,0.52
			s0.66,0.33,1.19,0.52c0.9,0.32,1.52,0.66,1.85,1.03s0.51,0.84,0.51,1.43C213.91,167.22,213.64,167.81,213.09,168.23z
			 M218.47,168.69c-0.11,0.05-0.26,0.09-0.47,0.13s-0.39,0.05-0.55,0.05c-1.24,0-1.86-0.65-1.86-1.96v-3.82h-0.92v-0.47l0.92-0.4
			l0.41-1.37h0.56v1.49h1.86v0.76h-1.86v3.78c0,0.39,0.09,0.68,0.28,0.89s0.44,0.31,0.76,0.31c0.17,0,0.34-0.01,0.5-0.04
			s0.29-0.05,0.38-0.08V168.69z M224.42,168.74h-0.72l-0.19-0.91h-0.05c-0.32,0.4-0.64,0.67-0.96,0.82s-0.72,0.21-1.19,0.21
			c-0.64,0-1.14-0.16-1.5-0.49s-0.54-0.79-0.54-1.4c0-1.3,1.04-1.98,3.11-2.04l1.09-0.04v-0.4c0-0.5-0.11-0.88-0.33-1.12
			s-0.56-0.36-1.04-0.36c-0.54,0-1.14,0.16-1.82,0.49l-0.3-0.74c0.32-0.17,0.66-0.31,1.04-0.4s0.75-0.15,1.13-0.15
			c0.77,0,1.33,0.17,1.7,0.51s0.55,0.88,0.55,1.63V168.74z M229.38,168.69c-0.11,0.05-0.26,0.09-0.47,0.13s-0.39,0.05-0.55,0.05
			c-1.24,0-1.86-0.65-1.86-1.96v-3.82h-0.92v-0.47l0.92-0.4l0.41-1.37h0.56v1.49h1.86v0.76h-1.86v3.78c0,0.39,0.09,0.68,0.28,0.89
			s0.44,0.31,0.76,0.31c0.17,0,0.34-0.01,0.5-0.04s0.29-0.05,0.38-0.08V168.69z M235.74,165.71h-4.42c0.02,0.75,0.21,1.33,0.57,1.72
			s0.87,0.59,1.53,0.59c0.69,0,1.38-0.14,2.05-0.43v0.87c-0.34,0.15-0.67,0.25-0.98,0.32s-0.68,0.1-1.11,0.1
			c-0.95,0-1.7-0.29-2.25-0.87s-0.82-1.38-0.82-2.41c0-1.04,0.25-1.86,0.76-2.47s1.19-0.91,2.05-0.91c0.8,0,1.44,0.26,1.91,0.79
			s0.7,1.23,0.7,2.09V165.71z M240.7,160.55c-0.38-0.12-0.7-0.18-0.96-0.18c-0.37,0-0.64,0.12-0.81,0.37s-0.26,0.64-0.26,1.17v0.42
			h1.63v0.76h-1.63v5.67h-0.97v-5.67h-1.15v-0.44l1.15-0.35v-0.36c0-1.58,0.69-2.37,2.07-2.37c0.34,0,0.74,0.07,1.2,0.21
			L240.7,160.55z M246.77,168.74h-0.8l-0.14-0.86h-0.05c-0.2,0.32-0.48,0.56-0.83,0.73s-0.76,0.25-1.21,0.25
			c-0.78,0-1.37-0.19-1.75-0.56s-0.58-0.96-0.58-1.78v-4.2h0.98v4.17c0,0.52,0.12,0.91,0.36,1.17s0.61,0.39,1.12,0.39
			c0.67,0,1.16-0.18,1.47-0.55s0.47-0.97,0.47-1.8v-3.38h0.97V168.74z M249.8,168.74h-0.97v-9.12h0.97V168.74z M250.47,149.63
			c-0.76,0.83-1.85,1.24-3.28,1.24s-2.51-0.41-3.28-1.24s-1.14-2.01-1.14-3.55s0.38-2.72,1.15-3.54c0.76-0.81,1.86-1.22,3.28-1.22
			c1.43,0,2.52,0.41,3.27,1.23c0.76,0.82,1.13,2,1.13,3.54C251.61,147.63,251.23,148.81,250.47,149.63z M259.14,168.23
			c-0.55,0.42-1.29,0.63-2.23,0.63c-1.02,0-1.8-0.13-2.34-0.39v-0.96c0.35,0.15,0.73,0.27,1.15,0.35s0.82,0.13,1.23,0.13
			c0.66,0,1.16-0.13,1.5-0.38s0.5-0.6,0.5-1.05c0-0.3-0.06-0.54-0.18-0.73s-0.32-0.36-0.6-0.52s-0.7-0.34-1.27-0.54
			c-0.8-0.29-1.37-0.62-1.71-1.01s-0.51-0.9-0.51-1.53c0-0.66,0.25-1.19,0.74-1.58s1.15-0.59,1.97-0.59c0.85,0,1.63,0.16,2.35,0.47
			l-0.31,0.87c-0.71-0.3-1.39-0.45-2.06-0.45c-0.53,0-0.94,0.11-1.24,0.34s-0.45,0.54-0.45,0.94c0,0.3,0.05,0.54,0.16,0.73
			s0.29,0.36,0.55,0.52s0.66,0.33,1.19,0.52c0.9,0.32,1.52,0.66,1.85,1.03s0.51,0.84,0.51,1.43
			C259.96,167.22,259.69,167.81,259.14,168.23z M258.76,150.74l-2.43-3.91l-0.83,0.6v3.31h-1.97v-9.28h1.97v4.25l0.77-1.09
			l2.51-3.15h2.18l-3.24,4.11l3.26,5.17H258.76z M266.64,165.71h-4.42c0.02,0.75,0.21,1.33,0.57,1.72s0.87,0.59,1.53,0.59
			c0.69,0,1.38-0.14,2.05-0.43v0.87c-0.34,0.15-0.67,0.25-0.98,0.32s-0.68,0.1-1.11,0.1c-0.95,0-1.7-0.29-2.25-0.87
			s-0.82-1.38-0.82-2.41c0-1.04,0.25-1.86,0.76-2.47s1.19-0.91,2.05-0.91c0.8,0,1.44,0.26,1.91,0.79s0.7,1.23,0.7,2.09V165.71z
			 M267.51,143.08h-3.38v2.04h3.14v1.61h-3.14v2.39h3.38v1.63h-5.34v-9.28h5.34V143.08z M271.86,163.18
			c-0.27-0.06-0.5-0.09-0.7-0.09c-0.52,0-0.96,0.21-1.33,0.63s-0.55,0.95-0.55,1.58v3.45h-0.97v-6.42h0.8l0.11,1.19h0.05
			c0.24-0.42,0.53-0.74,0.86-0.97s0.71-0.34,1.11-0.34c0.29,0,0.54,0.02,0.77,0.07L271.86,163.18z M275.74,168.74h-1.14l-2.44-6.42
			h1.04l1.38,3.81c0.31,0.89,0.5,1.47,0.55,1.73h0.05c0.04-0.21,0.18-0.64,0.41-1.29s0.74-2.07,1.54-4.26h1.04L275.74,168.74z
			 M280.18,168.74h-0.97v-6.42h0.97V168.74z M280.11,161.07c-0.11,0.11-0.25,0.16-0.4,0.16c-0.16,0-0.3-0.05-0.41-0.16
			s-0.16-0.27-0.16-0.49c0-0.22,0.05-0.39,0.16-0.49s0.25-0.16,0.41-0.16c0.16,0,0.29,0.05,0.4,0.16s0.17,0.27,0.17,0.49
			S280.22,160.96,280.11,161.07z M283.37,167.38c0.32,0.42,0.79,0.63,1.42,0.63c0.54,0,1.08-0.12,1.65-0.35v0.86
			c-0.43,0.22-0.97,0.33-1.62,0.33c-0.93,0-1.65-0.29-2.16-0.86s-0.76-1.38-0.76-2.43c0-1.07,0.26-1.9,0.78-2.49
			s1.25-0.88,2.21-0.88c0.31,0,0.62,0.03,0.93,0.1s0.55,0.14,0.73,0.23l-0.3,0.83c-0.21-0.09-0.45-0.16-0.7-0.21
			s-0.48-0.08-0.67-0.08c-1.3,0-1.96,0.83-1.96,2.5C282.89,166.35,283.05,166.96,283.37,167.38z M293.03,165.71h-4.42
			c0.02,0.75,0.21,1.33,0.57,1.72s0.87,0.59,1.53,0.59c0.69,0,1.38-0.14,2.05-0.43v0.87c-0.34,0.15-0.67,0.25-0.98,0.32
			s-0.68,0.1-1.11,0.1c-0.95,0-1.7-0.29-2.25-0.87s-0.82-1.38-0.82-2.41c0-1.04,0.25-1.86,0.76-2.47s1.19-0.91,2.05-0.91
			c0.8,0,1.44,0.26,1.91,0.79s0.7,1.23,0.7,2.09V165.71z M321.59,179.11c0-6.29,5.12-11.41,11.41-11.41s11.41,5.12,11.41,11.41
			s-5.12,11.41-11.41,11.41S321.59,185.4,321.59,179.11z M328.47,190.66c1.4,0.55,2.93,0.87,4.53,0.87
			c6.85,0,12.42-5.57,12.42-12.42c0-1.6-0.31-3.12-0.87-4.53c0,0,0,0,0,0c1.77,2.01,2.86,4.64,2.86,7.53
			c0,6.29-5.12,11.41-11.41,11.41C333.12,193.52,330.49,192.43,328.47,190.66z M339,196.52c-2.88,0-5.5-1.08-7.51-2.84
			c1.4,0.55,2.92,0.85,4.51,0.85c6.85,0,12.42-5.57,12.42-12.42c0-1.59-0.3-3.11-0.85-4.51c1.76,2.01,2.84,4.63,2.84,7.51
			C350.41,191.4,345.29,196.52,339,196.52z"/>
	</g>
	<g>
		<path class="st1" d="M264.02,163.02c-0.52,0-0.93,0.17-1.23,0.5s-0.49,0.8-0.54,1.39h3.36c0-0.61-0.14-1.08-0.41-1.41
			S264.52,163.02,264.02,163.02z"/>
	</g>
</g>
<path class="st2" d="M250.17,120.75c0.87,0.63,1.06,1.86,0.42,2.73l-2.24,3.03c-0.6,0.81-1.89,1.04-2.73,0.42
	c-0.87-0.64-1.06-1.86-0.42-2.73l2.24-3.03C248.07,120.3,249.3,120.1,250.17,120.75L250.17,120.75z M236.51,117.85l2.24-3.01
	c0.64-0.87,0.45-2.09-0.42-2.73c-0.88-0.64-2.09-0.45-2.73,0.42l-2.23,3.01c-0.64,0.87-0.45,2.09,0.42,2.73
	C234.61,118.87,235.91,118.67,236.51,117.85z M243.49,118.28l-2.23,3.01c-0.64,0.87-0.45,2.1,0.42,2.74
	c0.83,0.61,2.13,0.4,2.73-0.42l2.23-3.01c0.64-0.87,0.45-2.09-0.42-2.73C245.35,117.23,244.13,117.41,243.49,118.28z M253.36,124.15
	c-0.35,0.84-1.31,2.01-1.96,2.89c0.43,0.22,0.86,0.31,1.25,0.31c1.5,0,2.5-1.42,1.15-2.77L253.36,124.15z M239.54,115.4l-2.25,3.04
	c-0.64,0.87-0.43,2.07,0.43,2.71c0.85,0.62,2.13,0.42,2.72-0.4l2.25-3.04c0.64-0.86,0.45-2.09-0.42-2.73
	C241.4,114.34,240.18,114.54,239.54,115.4L239.54,115.4z M274.86,113.16l8.14-2.16l-4.39-16.89l-8.25,2.48L274.86,113.16z
	 M267.98,98.41c-4.03,0.29-7.85-1.19-12.06-3.36c-0.93-0.48-1.99-0.86-3.03-0.86c-0.96,0-1.9,0.33-2.68,1.22
	c-2.84,3.22-4.49,6.06-7.87,8.03c-1.67,0.97,0.29,4.02,3.87,2.77c1.82-0.64,4.29-2.29,6.31-3.92c1.58-1.28,2.53-1.09,3.91,0.28
	c2.57,2.57,11.23,11.12,11.23,11.12c1.34-0.83,2.63-1.49,3.92-2.07C271.57,111.63,267.98,98.41,267.98,98.41z M229.14,96.59
	l-8.25-2.48l-4.39,16.89l8.14,2.16L229.14,96.59z M266.29,116.33c-1.34-1.48-10.35-10.34-11.96-11.94c-2.72,2.04-6.3,4.88-9.76,4.88
	c-2.61,0-4.85-1.54-5.45-3.75c-0.48-1.76,0.26-3.56,1.83-4.48c1.97-1.15,3.27-2.72,4.86-4.69c-4.86-3.07-9.01,1.92-14.27,1.96
	l-3.53,12.98c1.54,0.37,2.88,0.75,4.13,1.22l1.22-1.65c2.19-3,6.77-2.37,8.17,0.97c1.77,0.16,3.29,1.3,3.95,2.88
	c1.72,0.15,3.25,1.24,3.94,2.88c2.59,0.22,4.71,2.58,4.24,5.46l1.81,1.81c0.76,0.76,2,0.76,2.76,0c0.76-0.76,0.76-2,0-2.77
	l-3.5-3.51c-0.19-0.19-0.19-0.51,0.01-0.7c0.19-0.18,0.5-0.18,0.68,0.01l4.22,4.22c0.76,0.76,2,0.76,2.77,0c0.76-0.76,0.76-2,0-2.77
	l-5.2-5.2c-0.2-0.2-0.19-0.52,0.02-0.71c0.19-0.17,0.49-0.17,0.67,0.01l5.61,5.61c0.76,0.76,2,0.76,2.77,0
	C267.05,118.33,267.05,117.1,266.29,116.33z"/>
<g>
	<path class="st3" d="M404.89,38.76c0,0.64-0.23,1.15-0.7,1.52c-0.46,0.37-1.11,0.56-1.94,0.56c-0.76,0-1.44-0.14-2.02-0.43v-1.41
		c0.48,0.21,0.89,0.37,1.22,0.45c0.33,0.09,0.64,0.13,0.92,0.13c0.33,0,0.59-0.06,0.76-0.19c0.18-0.13,0.27-0.32,0.27-0.57
		c0-0.14-0.04-0.26-0.12-0.37s-0.19-0.21-0.34-0.31c-0.15-0.1-0.46-0.26-0.93-0.48c-0.44-0.21-0.76-0.4-0.98-0.59
		s-0.39-0.41-0.52-0.66s-0.2-0.54-0.2-0.88c0-0.63,0.21-1.13,0.64-1.49c0.43-0.36,1.02-0.54,1.77-0.54c0.37,0,0.73,0.04,1.06,0.13
		c0.34,0.09,0.69,0.21,1.06,0.37l-0.49,1.18c-0.38-0.16-0.7-0.27-0.94-0.33c-0.25-0.06-0.49-0.09-0.74-0.09
		c-0.29,0-0.51,0.07-0.66,0.2s-0.23,0.31-0.23,0.52c0,0.13,0.03,0.25,0.09,0.35s0.16,0.2,0.29,0.29c0.14,0.09,0.46,0.26,0.96,0.5
		c0.67,0.32,1.12,0.64,1.37,0.96S404.89,38.3,404.89,38.76z"/>
	<path class="st3" d="M411.99,33.61v4.62c0,0.53-0.12,0.99-0.35,1.39c-0.24,0.4-0.58,0.7-1.02,0.91s-0.97,0.32-1.58,0.32
		c-0.92,0-1.63-0.24-2.14-0.71s-0.76-1.11-0.76-1.93v-4.6h1.51v4.37c0,0.55,0.11,0.95,0.33,1.21s0.59,0.39,1.1,0.39
		c0.5,0,0.85-0.13,1.08-0.39c0.22-0.26,0.33-0.67,0.33-1.22v-4.36H411.99z"/>
	<path class="st3" d="M413.74,33.61h2.22c1.01,0,1.75,0.14,2.21,0.43c0.46,0.29,0.69,0.75,0.69,1.37c0,0.43-0.1,0.78-0.3,1.05
		c-0.2,0.27-0.47,0.44-0.8,0.49V37c0.45,0.1,0.78,0.29,0.98,0.57c0.2,0.28,0.3,0.64,0.3,1.1c0,0.65-0.24,1.16-0.71,1.52
		c-0.47,0.36-1.11,0.55-1.92,0.55h-2.67V33.61z M415.25,36.43h0.88c0.41,0,0.71-0.06,0.89-0.19c0.18-0.13,0.28-0.34,0.28-0.63
		c0-0.27-0.1-0.47-0.3-0.59c-0.2-0.12-0.52-0.18-0.95-0.18h-0.8V36.43z M415.25,37.63v1.86h0.99c0.42,0,0.72-0.08,0.92-0.24
		s0.3-0.4,0.3-0.73c0-0.59-0.42-0.89-1.27-0.89H415.25z"/>
	<path class="st3" d="M424.67,38.76c0,0.64-0.23,1.15-0.7,1.52c-0.46,0.37-1.11,0.56-1.94,0.56c-0.76,0-1.44-0.14-2.02-0.43v-1.41
		c0.48,0.21,0.89,0.37,1.22,0.45c0.33,0.09,0.64,0.13,0.92,0.13c0.33,0,0.59-0.06,0.76-0.19c0.18-0.13,0.27-0.32,0.27-0.57
		c0-0.14-0.04-0.26-0.12-0.37s-0.19-0.21-0.34-0.31c-0.15-0.1-0.46-0.26-0.93-0.48c-0.44-0.21-0.76-0.4-0.98-0.59
		s-0.39-0.41-0.52-0.66s-0.2-0.54-0.2-0.88c0-0.63,0.21-1.13,0.64-1.49c0.43-0.36,1.02-0.54,1.77-0.54c0.37,0,0.73,0.04,1.06,0.13
		c0.34,0.09,0.69,0.21,1.06,0.37l-0.49,1.18c-0.38-0.16-0.7-0.27-0.94-0.33c-0.25-0.06-0.49-0.09-0.74-0.09
		c-0.29,0-0.51,0.07-0.66,0.2s-0.23,0.31-0.23,0.52c0,0.13,0.03,0.25,0.09,0.35s0.16,0.2,0.29,0.29c0.14,0.09,0.46,0.26,0.96,0.5
		c0.67,0.32,1.12,0.64,1.37,0.96S424.67,38.3,424.67,38.76z"/>
	<path class="st3" d="M429,34.76c-0.57,0-1.01,0.21-1.32,0.64s-0.47,1.02-0.47,1.79c0,1.59,0.6,2.39,1.79,2.39
		c0.5,0,1.11-0.13,1.82-0.38v1.27c-0.59,0.24-1.24,0.37-1.96,0.37c-1.04,0-1.83-0.31-2.38-0.94s-0.83-1.53-0.83-2.71
		c0-0.74,0.13-1.39,0.41-1.95s0.66-0.99,1.16-1.28c0.51-0.3,1.1-0.45,1.78-0.45c0.69,0,1.39,0.17,2.09,0.5l-0.49,1.23
		c-0.27-0.13-0.54-0.24-0.81-0.33S429.26,34.76,429,34.76z"/>
	<path class="st3" d="M433.85,38.01v2.74h-1.51v-7.14h2.08c0.97,0,1.69,0.18,2.15,0.53s0.7,0.89,0.7,1.61
		c0,0.42-0.12,0.79-0.35,1.12s-0.56,0.58-0.98,0.77c1.07,1.6,1.77,2.64,2.1,3.11h-1.68l-1.7-2.74H433.85z M433.85,36.77h0.49
		c0.48,0,0.83-0.08,1.06-0.24s0.34-0.41,0.34-0.75c0-0.34-0.12-0.58-0.35-0.72c-0.23-0.14-0.59-0.21-1.08-0.21h-0.46V36.77z"/>
	<path class="st3" d="M438.94,40.74v-7.14h1.51v7.14H438.94z"/>
	<path class="st3" d="M442.25,33.61h2.22c1.01,0,1.75,0.14,2.2,0.43c0.46,0.29,0.69,0.75,0.69,1.37c0,0.43-0.1,0.78-0.3,1.05
		c-0.2,0.27-0.47,0.44-0.8,0.49V37c0.45,0.1,0.78,0.29,0.98,0.57c0.2,0.28,0.3,0.64,0.3,1.1c0,0.65-0.24,1.16-0.71,1.52
		c-0.47,0.36-1.11,0.55-1.92,0.55h-2.67V33.61z M443.77,36.43h0.88c0.41,0,0.71-0.06,0.89-0.19c0.18-0.13,0.28-0.34,0.28-0.63
		c0-0.27-0.1-0.47-0.3-0.59c-0.2-0.12-0.52-0.18-0.95-0.18h-0.8V36.43z M443.77,37.63v1.86h0.99c0.42,0,0.72-0.08,0.92-0.24
		s0.3-0.4,0.3-0.73c0-0.59-0.42-0.89-1.27-0.89H443.77z"/>
	<path class="st3" d="M453.08,40.74h-4.11v-7.14h4.11v1.24h-2.6v1.57h2.42v1.24h-2.42v1.84h2.6V40.74z"/>
	<path class="st3" d="M456.08,38.01v2.74h-1.51v-7.14h2.08c0.97,0,1.69,0.18,2.15,0.53s0.7,0.89,0.7,1.61
		c0,0.42-0.12,0.79-0.35,1.12s-0.56,0.58-0.98,0.77c1.07,1.6,1.77,2.64,2.1,3.11h-1.68l-1.7-2.74H456.08z M456.08,36.77h0.49
		c0.48,0,0.83-0.08,1.06-0.24s0.34-0.41,0.34-0.75c0-0.34-0.12-0.58-0.35-0.72c-0.23-0.14-0.59-0.21-1.08-0.21h-0.46V36.77z"/>
	<path class="st3" d="M465.39,38.76c0,0.64-0.23,1.15-0.7,1.52c-0.46,0.37-1.11,0.56-1.94,0.56c-0.76,0-1.44-0.14-2.02-0.43v-1.41
		c0.48,0.21,0.89,0.37,1.22,0.45c0.33,0.09,0.64,0.13,0.92,0.13c0.33,0,0.59-0.06,0.76-0.19c0.18-0.13,0.27-0.32,0.27-0.57
		c0-0.14-0.04-0.26-0.12-0.37s-0.19-0.21-0.34-0.31c-0.15-0.1-0.46-0.26-0.92-0.48c-0.44-0.21-0.76-0.4-0.98-0.59
		s-0.39-0.41-0.52-0.66s-0.2-0.54-0.2-0.88c0-0.63,0.21-1.13,0.64-1.49c0.43-0.36,1.02-0.54,1.78-0.54c0.37,0,0.72,0.04,1.06,0.13
		c0.34,0.09,0.69,0.21,1.06,0.37l-0.49,1.18c-0.38-0.16-0.7-0.27-0.95-0.33c-0.25-0.06-0.49-0.09-0.73-0.09
		c-0.29,0-0.51,0.07-0.66,0.2s-0.23,0.31-0.23,0.52c0,0.13,0.03,0.25,0.09,0.35s0.16,0.2,0.3,0.29c0.13,0.09,0.45,0.26,0.96,0.5
		c0.67,0.32,1.13,0.64,1.37,0.96S465.39,38.3,465.39,38.76z"/>
</g>
<path class="st3" d="M425.89,10.02l1.73-1.6c2.02,0.98,3.3,1.72,5.57,3.34c4.27-4.85,7.09-7.3,12.34-10.57l0.56,1.29
	c-4.33,3.77-7.49,7.98-12.06,16.16C431.22,15.34,429.34,13.23,425.89,10.02z M441.6,10.63c0.07,0.48,0.12,0.97,0.12,1.48
	c0,5.41-4.41,9.82-9.82,9.82s-9.82-4.41-9.82-9.82s4.41-9.82,9.82-9.82c2.15,0,4.13,0.7,5.75,1.88c0.57-0.49,1.15-0.96,1.75-1.42
	c-2.06-1.65-4.66-2.64-7.5-2.64c-6.63,0-12,5.37-12,12s5.37,12,12,12c6.63,0,12-5.37,12-12c0-1.29-0.21-2.52-0.58-3.69
	C442.75,9.11,442.18,9.85,441.6,10.63z"/>
<g>
	<path class="st3" d="M434.13,83.02c-0.52,0-0.93,0.17-1.23,0.5s-0.49,0.8-0.54,1.39h3.36c0-0.61-0.14-1.08-0.41-1.41
		S434.64,83.02,434.13,83.02z"/>
	<path class="st3" d="M424.14,83.03c-0.66,0-1.14,0.19-1.44,0.57s-0.44,1.02-0.44,1.92s0.15,1.55,0.45,1.94s0.78,0.58,1.45,0.58
		c0.6,0,1.04-0.22,1.34-0.65s0.44-1.06,0.44-1.88c0-0.84-0.15-1.46-0.44-1.87S424.75,83.03,424.14,83.03z"/>
	<path class="st3" d="M398.95,82.65c0-0.57-0.17-0.97-0.5-1.22s-0.87-0.38-1.61-0.38h-1.29v3.28h1.37c0.7,0,1.22-0.14,1.55-0.42
		S398.95,83.21,398.95,82.65z"/>
	<path class="st3" d="M415.67,85.99c-0.34,0.21-0.51,0.54-0.51,0.99c0,0.35,0.11,0.62,0.32,0.8s0.51,0.28,0.89,0.28
		c0.61,0,1.08-0.17,1.43-0.5s0.52-0.8,0.52-1.39v-0.58l-0.97,0.04C416.57,85.65,416.01,85.77,415.67,85.99z"/>
	<path class="st3" d="M404.27,83.02c-0.52,0-0.93,0.17-1.23,0.5s-0.49,0.8-0.54,1.39h3.36c0-0.61-0.14-1.08-0.41-1.41
		S404.77,83.02,404.27,83.02z"/>
	<path class="st3" d="M444.29,81.23c-0.09,0.38-0.21,0.79-0.37,1.24l-1.01,2.65h2.77l-1-2.65
		C444.56,82.13,444.43,81.72,444.29,81.23z"/>
	<path class="st3" d="M461.65,83.03c-0.64,0-1.12,0.21-1.44,0.63s-0.49,1.04-0.49,1.87c0,0.82,0.16,1.45,0.49,1.88
		s0.81,0.64,1.45,0.64s1.12-0.21,1.45-0.64s0.5-1.05,0.5-1.88c0-0.82-0.17-1.44-0.5-1.86S462.3,83.03,461.65,83.03z"/>
	<path class="st3" d="M373,64.11v39h117v-39H373z M399.4,88.74l-2.07-3.56h-1.79v3.56h-1v-8.57h2.35c1.05,0,1.83,0.2,2.33,0.6
		s0.75,1.01,0.75,1.82c0,1.13-0.57,1.9-1.72,2.3l2.33,3.85H399.4z M406.89,85.71h-4.42c0.02,0.75,0.21,1.33,0.57,1.72
		s0.87,0.59,1.53,0.59c0.69,0,1.38-0.14,2.05-0.43v0.87c-0.34,0.15-0.67,0.25-0.98,0.32s-0.68,0.1-1.11,0.1
		c-0.95,0-1.7-0.29-2.25-0.87s-0.82-1.38-0.82-2.41c0-1.04,0.25-1.86,0.76-2.47s1.19-0.91,2.05-0.91c0.8,0,1.44,0.26,1.91,0.79
		s0.7,1.23,0.7,2.09V85.71z M409.52,88.74h-0.97v-9.12h0.97V88.74z M412.56,88.74h-0.97v-6.42h0.97V88.74z M412.48,81.07
		c-0.11,0.11-0.25,0.16-0.4,0.16c-0.16,0-0.3-0.05-0.41-0.16s-0.16-0.27-0.16-0.49c0-0.22,0.05-0.39,0.16-0.49s0.25-0.16,0.41-0.16
		c0.16,0,0.29,0.05,0.4,0.16s0.17,0.27,0.17,0.49S412.59,80.96,412.48,81.07z M419.29,88.74h-0.72l-0.19-0.91h-0.05
		c-0.32,0.4-0.64,0.67-0.96,0.82s-0.72,0.21-1.19,0.21c-0.64,0-1.14-0.16-1.5-0.49s-0.54-0.79-0.54-1.4c0-1.3,1.04-1.98,3.11-2.04
		l1.09-0.04v-0.4c0-0.5-0.11-0.88-0.33-1.12s-0.56-0.36-1.04-0.36c-0.54,0-1.14,0.16-1.82,0.49l-0.3-0.74
		c0.32-0.17,0.66-0.31,1.04-0.4s0.75-0.15,1.13-0.15c0.77,0,1.33,0.17,1.7,0.51s0.55,0.88,0.55,1.63V88.74z M426.24,87.99
		c-0.47,0.58-1.12,0.88-1.96,0.88c-0.42,0-0.8-0.08-1.15-0.23s-0.64-0.39-0.87-0.71h-0.07l-0.21,0.83h-0.7v-9.12h0.97v2.21
		c0,0.5-0.02,0.94-0.05,1.34h0.05c0.45-0.64,1.13-0.96,2.02-0.96c0.84,0,1.5,0.29,1.97,0.86s0.7,1.39,0.7,2.45
		S426.71,87.4,426.24,87.99z M429.62,88.74h-0.97v-9.12h0.97V88.74z M436.76,85.71h-4.42c0.02,0.75,0.21,1.33,0.57,1.72
		s0.87,0.59,1.53,0.59c0.69,0,1.38-0.14,2.05-0.43v0.87c-0.34,0.15-0.67,0.25-0.98,0.32s-0.68,0.1-1.11,0.1
		c-0.95,0-1.7-0.29-2.25-0.87s-0.82-1.38-0.82-2.41c0-1.04,0.25-1.86,0.76-2.47s1.19-0.91,2.05-0.91c0.8,0,1.44,0.26,1.91,0.79
		s0.7,1.23,0.7,2.09V85.71z M447.06,88.74L446,86.02h-3.43l-1.05,2.72h-1.01l3.39-8.6h0.84l3.37,8.6H447.06z M450.25,87.38
		c0.32,0.42,0.79,0.63,1.42,0.63c0.54,0,1.08-0.12,1.65-0.35v0.86c-0.43,0.22-0.97,0.33-1.62,0.33c-0.93,0-1.65-0.29-2.16-0.86
		s-0.76-1.38-0.76-2.43c0-1.07,0.26-1.9,0.78-2.49s1.25-0.88,2.21-0.88c0.31,0,0.62,0.03,0.93,0.1s0.55,0.14,0.73,0.23l-0.3,0.83
		c-0.21-0.09-0.45-0.16-0.7-0.21s-0.48-0.08-0.67-0.08c-1.3,0-1.96,0.83-1.96,2.5C449.78,86.35,449.94,86.96,450.25,87.38z
		 M457.79,88.69c-0.11,0.05-0.26,0.09-0.47,0.13s-0.39,0.05-0.55,0.05c-1.24,0-1.86-0.65-1.86-1.96v-3.82h-0.92v-0.47l0.92-0.4
		l0.41-1.37h0.56v1.49h1.86v0.76h-1.86v3.78c0,0.39,0.09,0.68,0.28,0.89s0.44,0.31,0.76,0.31c0.17,0,0.34-0.01,0.5-0.04
		s0.29-0.05,0.38-0.08V88.69z M463.83,87.98c-0.53,0.59-1.26,0.88-2.19,0.88c-0.57,0-1.08-0.13-1.53-0.4s-0.79-0.66-1.03-1.16
		s-0.36-1.09-0.36-1.77c0-1.05,0.26-1.86,0.79-2.45s1.25-0.88,2.18-0.88c0.9,0,1.61,0.3,2.14,0.9s0.79,1.41,0.79,2.43
		C464.62,86.57,464.35,87.39,463.83,87.98z M469.89,83.18c-0.27-0.06-0.5-0.09-0.7-0.09c-0.52,0-0.96,0.21-1.33,0.63
		s-0.55,0.95-0.55,1.58v3.45h-0.97v-6.42h0.8l0.11,1.19h0.05c0.24-0.42,0.53-0.74,0.86-0.97s0.71-0.34,1.11-0.34
		c0.29,0,0.54,0.02,0.77,0.07L469.89,83.18z"/>
</g>
<g>
	<path class="st3" d="M424.14,191.03c-0.66,0-1.14,0.19-1.44,0.57s-0.44,1.02-0.44,1.92s0.15,1.55,0.45,1.94s0.78,0.58,1.45,0.58
		c0.6,0,1.04-0.22,1.34-0.65s0.44-1.06,0.44-1.88c0-0.84-0.15-1.46-0.44-1.87S424.75,191.03,424.14,191.03z"/>
	<path class="st3" d="M415.67,193.99c-0.34,0.21-0.51,0.54-0.51,0.99c0,0.35,0.11,0.62,0.32,0.8s0.51,0.28,0.89,0.28
		c0.61,0,1.08-0.17,1.43-0.5s0.52-0.8,0.52-1.39v-0.58l-0.97,0.04C416.57,193.65,416.01,193.77,415.67,193.99z"/>
	<path class="st3" d="M373,172.11v39h117v-39H373z M399.4,196.74l-2.07-3.56h-1.79v3.56h-1v-8.57h2.35c1.05,0,1.83,0.2,2.33,0.6
		s0.75,1.01,0.75,1.82c0,1.13-0.57,1.9-1.72,2.3l2.33,3.85H399.4z M406.89,193.71h-4.42c0.02,0.75,0.21,1.33,0.57,1.72
		s0.87,0.59,1.53,0.59c0.69,0,1.38-0.14,2.05-0.43v0.87c-0.34,0.15-0.67,0.25-0.98,0.32s-0.68,0.1-1.11,0.1
		c-0.95,0-1.7-0.29-2.25-0.87s-0.82-1.38-0.82-2.41c0-1.04,0.25-1.86,0.76-2.47s1.19-0.91,2.05-0.91c0.8,0,1.44,0.26,1.91,0.79
		s0.7,1.23,0.7,2.09V193.71z M409.52,196.74h-0.97v-9.12h0.97V196.74z M412.56,196.74h-0.97v-6.42h0.97V196.74z M412.48,189.07
		c-0.11,0.11-0.25,0.16-0.4,0.16c-0.16,0-0.3-0.05-0.41-0.16s-0.16-0.27-0.16-0.49c0-0.22,0.05-0.39,0.16-0.49s0.25-0.16,0.41-0.16
		c0.16,0,0.29,0.05,0.4,0.16s0.17,0.27,0.17,0.49S412.59,188.96,412.48,189.07z M419.29,196.74h-0.72l-0.19-0.91h-0.05
		c-0.32,0.4-0.64,0.67-0.96,0.82s-0.72,0.21-1.19,0.21c-0.64,0-1.14-0.16-1.5-0.49s-0.54-0.79-0.54-1.4c0-1.3,1.04-1.98,3.11-2.04
		l1.09-0.04v-0.4c0-0.5-0.11-0.88-0.33-1.12s-0.56-0.36-1.04-0.36c-0.54,0-1.14,0.16-1.82,0.49l-0.3-0.74
		c0.32-0.17,0.66-0.31,1.04-0.4s0.75-0.15,1.13-0.15c0.77,0,1.33,0.17,1.7,0.51s0.55,0.88,0.55,1.63V196.74z M426.24,195.99
		c-0.47,0.58-1.12,0.88-1.96,0.88c-0.42,0-0.8-0.08-1.15-0.23s-0.64-0.39-0.87-0.71h-0.07l-0.21,0.83h-0.7v-9.12h0.97v2.21
		c0,0.5-0.02,0.94-0.05,1.34h0.05c0.45-0.64,1.13-0.96,2.02-0.96c0.84,0,1.5,0.29,1.97,0.86s0.7,1.39,0.7,2.45
		S426.71,195.4,426.24,195.99z M429.62,196.74h-0.97v-9.12h0.97V196.74z M436.76,193.71h-4.42c0.02,0.75,0.21,1.33,0.57,1.72
		s0.87,0.59,1.53,0.59c0.69,0,1.38-0.14,2.05-0.43v0.87c-0.34,0.15-0.67,0.25-0.98,0.32s-0.68,0.1-1.11,0.1
		c-0.95,0-1.7-0.29-2.25-0.87s-0.82-1.38-0.82-2.41c0-1.04,0.25-1.86,0.76-2.47s1.19-0.91,2.05-0.91c0.8,0,1.44,0.26,1.91,0.79
		s0.7,1.23,0.7,2.09V193.71z M447.06,196.74l-1.07-2.72h-3.43l-1.05,2.72h-1.01l3.39-8.6h0.84l3.37,8.6H447.06z M450.25,195.38
		c0.32,0.42,0.79,0.63,1.42,0.63c0.54,0,1.08-0.12,1.65-0.35v0.86c-0.43,0.22-0.97,0.33-1.62,0.33c-0.93,0-1.65-0.29-2.16-0.86
		s-0.76-1.38-0.76-2.43c0-1.07,0.26-1.9,0.78-2.49s1.25-0.88,2.21-0.88c0.31,0,0.62,0.03,0.93,0.1s0.55,0.14,0.73,0.23l-0.3,0.83
		c-0.21-0.09-0.45-0.16-0.7-0.21s-0.48-0.08-0.67-0.08c-1.3,0-1.96,0.83-1.96,2.5C449.78,194.35,449.94,194.96,450.25,195.38z
		 M457.79,196.69c-0.11,0.05-0.26,0.09-0.47,0.13s-0.39,0.05-0.55,0.05c-1.24,0-1.86-0.65-1.86-1.96v-3.82h-0.92v-0.47l0.92-0.4
		l0.41-1.37h0.56v1.49h1.86v0.76h-1.86v3.78c0,0.39,0.09,0.68,0.28,0.89s0.44,0.31,0.76,0.31c0.17,0,0.34-0.01,0.5-0.04
		s0.29-0.05,0.38-0.08V196.69z M463.83,195.98c-0.53,0.59-1.26,0.88-2.19,0.88c-0.57,0-1.08-0.13-1.53-0.4s-0.79-0.66-1.03-1.16
		s-0.36-1.09-0.36-1.77c0-1.05,0.26-1.86,0.79-2.45s1.25-0.88,2.18-0.88c0.9,0,1.61,0.3,2.14,0.9s0.79,1.41,0.79,2.43
		C464.62,194.57,464.35,195.39,463.83,195.98z M469.89,191.18c-0.27-0.06-0.5-0.09-0.7-0.09c-0.52,0-0.96,0.21-1.33,0.63
		s-0.55,0.95-0.55,1.58v3.45h-0.97v-6.42h0.8l0.11,1.19h0.05c0.24-0.42,0.53-0.74,0.86-0.97s0.71-0.34,1.11-0.34
		c0.29,0,0.54,0.02,0.77,0.07L469.89,191.18z"/>
	<path class="st3" d="M444.29,189.23c-0.09,0.38-0.21,0.79-0.37,1.24l-1.01,2.65h2.77l-1-2.65
		C444.56,190.13,444.43,189.72,444.29,189.23z"/>
	<path class="st3" d="M404.27,191.02c-0.52,0-0.93,0.17-1.23,0.5s-0.49,0.8-0.54,1.39h3.36c0-0.61-0.14-1.08-0.41-1.41
		S404.77,191.02,404.27,191.02z"/>
	<path class="st3" d="M398.95,190.65c0-0.57-0.17-0.97-0.5-1.22s-0.87-0.38-1.61-0.38h-1.29v3.28h1.37c0.7,0,1.22-0.14,1.55-0.42
		S398.95,191.21,398.95,190.65z"/>
	<path class="st3" d="M434.13,191.02c-0.52,0-0.93,0.17-1.23,0.5s-0.49,0.8-0.54,1.39h3.36c0-0.61-0.14-1.08-0.41-1.41
		S434.64,191.02,434.13,191.02z"/>
	<path class="st3" d="M461.65,191.03c-0.64,0-1.12,0.21-1.44,0.63s-0.49,1.04-0.49,1.87c0,0.82,0.16,1.45,0.49,1.88
		s0.81,0.64,1.45,0.64s1.12-0.21,1.45-0.64s0.5-1.05,0.5-1.88c0-0.82-0.17-1.44-0.5-1.86S462.3,191.03,461.65,191.03z"/>
</g>
<g>
	<path class="st3" d="M419.13,137.03c-0.66,0-1.14,0.19-1.44,0.57s-0.44,1.02-0.44,1.92s0.15,1.55,0.45,1.94s0.78,0.58,1.45,0.58
		c0.6,0,1.04-0.22,1.34-0.65s0.44-1.06,0.44-1.88c0-0.84-0.15-1.46-0.44-1.87S419.75,137.03,419.13,137.03z"/>
	<path class="st3" d="M410.66,139.99c-0.34,0.21-0.51,0.54-0.51,0.99c0,0.35,0.11,0.62,0.32,0.8s0.51,0.28,0.89,0.28
		c0.61,0,1.08-0.17,1.43-0.5s0.52-0.8,0.52-1.39v-0.58l-0.97,0.04C411.56,139.65,411,139.77,410.66,139.99z"/>
	<path class="st3" d="M399.26,137.02c-0.52,0-0.93,0.17-1.23,0.5s-0.49,0.8-0.54,1.39h3.36c0-0.61-0.14-1.08-0.41-1.41
		S399.76,137.02,399.26,137.02z"/>
	<path class="st3" d="M429.12,137.02c-0.52,0-0.93,0.17-1.23,0.5s-0.49,0.8-0.54,1.39h3.36c0-0.61-0.14-1.08-0.41-1.41
		S429.63,137.02,429.12,137.02z"/>
	<path class="st3" d="M445.56,137.02c-0.52,0-0.93,0.17-1.23,0.5s-0.49,0.8-0.54,1.39h3.36c0-0.61-0.14-1.08-0.41-1.41
		S446.07,137.02,445.56,137.02z"/>
	<path class="st3" d="M373,118.11v39h117v-39H373z M394.39,142.74l-2.07-3.56h-1.79v3.56h-1v-8.57h2.35c1.05,0,1.83,0.2,2.33,0.6
		s0.75,1.01,0.75,1.82c0,1.13-0.57,1.9-1.72,2.3l2.33,3.85H394.39z M401.88,139.71h-4.42c0.02,0.75,0.21,1.33,0.57,1.72
		s0.87,0.59,1.53,0.59c0.69,0,1.38-0.14,2.05-0.43v0.87c-0.34,0.15-0.67,0.25-0.98,0.32s-0.68,0.1-1.11,0.1
		c-0.95,0-1.7-0.29-2.25-0.87s-0.82-1.38-0.82-2.41c0-1.04,0.25-1.86,0.76-2.47s1.19-0.91,2.05-0.91c0.8,0,1.44,0.26,1.91,0.79
		s0.7,1.23,0.7,2.09V139.71z M404.51,142.74h-0.97v-9.12h0.97V142.74z M407.55,142.74h-0.97v-6.42h0.97V142.74z M407.47,135.07
		c-0.11,0.11-0.25,0.16-0.4,0.16c-0.16,0-0.3-0.05-0.41-0.16s-0.16-0.27-0.16-0.49c0-0.22,0.05-0.39,0.16-0.49s0.25-0.16,0.41-0.16
		c0.16,0,0.29,0.05,0.4,0.16s0.17,0.27,0.17,0.49S407.58,134.96,407.47,135.07z M414.28,142.74h-0.72l-0.19-0.91h-0.05
		c-0.32,0.4-0.64,0.67-0.96,0.82s-0.72,0.21-1.19,0.21c-0.64,0-1.14-0.16-1.5-0.49s-0.54-0.79-0.54-1.4c0-1.3,1.04-1.98,3.11-2.04
		l1.09-0.04v-0.4c0-0.5-0.11-0.88-0.33-1.12s-0.56-0.36-1.04-0.36c-0.54,0-1.14,0.16-1.82,0.49l-0.3-0.74
		c0.32-0.17,0.66-0.31,1.04-0.4s0.75-0.15,1.13-0.15c0.77,0,1.33,0.17,1.7,0.51s0.55,0.88,0.55,1.63V142.74z M421.23,141.99
		c-0.47,0.58-1.12,0.88-1.96,0.88c-0.42,0-0.8-0.08-1.15-0.23s-0.64-0.39-0.87-0.71h-0.07l-0.21,0.83h-0.7v-9.12h0.97v2.21
		c0,0.5-0.02,0.94-0.05,1.34h0.05c0.45-0.64,1.13-0.96,2.02-0.96c0.84,0,1.5,0.29,1.97,0.86s0.7,1.39,0.7,2.45
		S421.7,141.4,421.23,141.99z M424.61,142.74h-0.97v-9.12h0.97V142.74z M431.75,139.71h-4.42c0.02,0.75,0.21,1.33,0.57,1.72
		s0.87,0.59,1.53,0.59c0.69,0,1.38-0.14,2.05-0.43v0.87c-0.34,0.15-0.67,0.25-0.98,0.32s-0.68,0.1-1.11,0.1
		c-0.95,0-1.7-0.29-2.25-0.87s-0.82-1.38-0.82-2.41c0-1.04,0.25-1.86,0.76-2.47s1.19-0.91,2.05-0.91c0.8,0,1.44,0.26,1.91,0.79
		s0.7,1.23,0.7,2.09V139.71z M440.68,142.23c-0.55,0.42-1.29,0.63-2.23,0.63c-1.02,0-1.8-0.13-2.34-0.39v-0.96
		c0.35,0.15,0.73,0.27,1.15,0.35s0.82,0.13,1.23,0.13c0.66,0,1.16-0.13,1.5-0.38s0.5-0.6,0.5-1.05c0-0.3-0.06-0.54-0.18-0.73
		s-0.32-0.36-0.6-0.52s-0.7-0.34-1.27-0.54c-0.8-0.29-1.37-0.62-1.71-1.01s-0.51-0.9-0.51-1.53c0-0.66,0.25-1.19,0.74-1.58
		s1.15-0.59,1.97-0.59c0.85,0,1.63,0.16,2.35,0.47l-0.31,0.87c-0.71-0.3-1.39-0.45-2.06-0.45c-0.53,0-0.94,0.11-1.24,0.34
		s-0.45,0.54-0.45,0.94c0,0.3,0.05,0.54,0.16,0.73s0.29,0.36,0.55,0.52s0.66,0.33,1.19,0.52c0.9,0.32,1.52,0.66,1.85,1.03
		s0.51,0.84,0.51,1.43C441.5,141.22,441.23,141.81,440.68,142.23z M448.18,139.71h-4.42c0.02,0.75,0.21,1.33,0.57,1.72
		s0.87,0.59,1.53,0.59c0.69,0,1.38-0.14,2.05-0.43v0.87c-0.34,0.15-0.67,0.25-0.98,0.32s-0.68,0.1-1.11,0.1
		c-0.95,0-1.7-0.29-2.25-0.87s-0.82-1.38-0.82-2.41c0-1.04,0.25-1.86,0.76-2.47s1.19-0.91,2.05-0.91c0.8,0,1.44,0.26,1.91,0.79
		s0.7,1.23,0.7,2.09V139.71z M453.4,137.18c-0.27-0.06-0.5-0.09-0.7-0.09c-0.52,0-0.96,0.21-1.33,0.63s-0.55,0.95-0.55,1.58v3.45
		h-0.97v-6.42h0.8l0.11,1.19h0.05c0.24-0.42,0.53-0.74,0.86-0.97s0.71-0.34,1.11-0.34c0.29,0,0.54,0.02,0.77,0.07L453.4,137.18z
		 M457.28,142.74h-1.14l-2.44-6.42h1.04l1.38,3.81c0.31,0.89,0.5,1.47,0.55,1.73h0.05c0.04-0.21,0.18-0.64,0.41-1.29
		s0.74-2.07,1.54-4.26h1.04L457.28,142.74z M461.72,142.74h-0.97v-6.42h0.97V142.74z M461.65,135.07c-0.11,0.11-0.25,0.16-0.4,0.16
		c-0.16,0-0.3-0.05-0.41-0.16s-0.16-0.27-0.16-0.49c0-0.22,0.05-0.39,0.16-0.49s0.25-0.16,0.41-0.16c0.16,0,0.29,0.05,0.4,0.16
		s0.17,0.27,0.17,0.49S461.76,134.96,461.65,135.07z M464.91,141.38c0.32,0.42,0.79,0.63,1.42,0.63c0.54,0,1.08-0.12,1.65-0.35v0.86
		c-0.43,0.22-0.97,0.33-1.62,0.33c-0.93,0-1.65-0.29-2.16-0.86s-0.76-1.38-0.76-2.43c0-1.07,0.26-1.9,0.78-2.49s1.25-0.88,2.21-0.88
		c0.31,0,0.62,0.03,0.93,0.1s0.55,0.14,0.73,0.23l-0.3,0.83c-0.21-0.09-0.45-0.16-0.7-0.21s-0.48-0.08-0.67-0.08
		c-1.3,0-1.96,0.83-1.96,2.5C464.44,140.35,464.6,140.96,464.91,141.38z M474.57,139.71h-4.42c0.02,0.75,0.21,1.33,0.57,1.72
		s0.87,0.59,1.53,0.59c0.69,0,1.38-0.14,2.05-0.43v0.87c-0.34,0.15-0.67,0.25-0.98,0.32s-0.68,0.1-1.11,0.1
		c-0.95,0-1.7-0.29-2.25-0.87s-0.82-1.38-0.82-2.41c0-1.04,0.25-1.86,0.76-2.47s1.19-0.91,2.05-0.91c0.8,0,1.44,0.26,1.91,0.79
		s0.7,1.23,0.7,2.09V139.71z"/>
	<path class="st3" d="M471.95,137.02c-0.52,0-0.93,0.17-1.23,0.5s-0.49,0.8-0.54,1.39h3.36c0-0.61-0.14-1.08-0.41-1.41
		S472.46,137.02,471.95,137.02z"/>
	<path class="st3" d="M393.94,136.65c0-0.57-0.17-0.97-0.5-1.22s-0.87-0.38-1.61-0.38h-1.29v3.28h1.37c0.7,0,1.22-0.14,1.55-0.42
		S393.94,137.21,393.94,136.65z"/>
</g>
<g>
	<path class="st4" d="M44.42,35.83c0,0.77-0.24,1.36-0.72,1.76s-1.16,0.61-2.05,0.61H41v2.54h-1.51v-7.14h2.28
		c0.87,0,1.52,0.19,1.97,0.56S44.42,35.09,44.42,35.83z M41,36.97h0.5c0.47,0,0.81-0.09,1.04-0.28c0.23-0.18,0.35-0.45,0.35-0.8
		c0-0.35-0.1-0.62-0.29-0.79s-0.5-0.25-0.91-0.25H41V36.97z"/>
	<path class="st4" d="M51.57,33.61v4.62c0,0.53-0.12,0.99-0.35,1.39s-0.58,0.7-1.02,0.91c-0.45,0.21-0.97,0.32-1.58,0.32
		c-0.92,0-1.63-0.24-2.14-0.71s-0.76-1.11-0.76-1.93v-4.6h1.51v4.37c0,0.55,0.11,0.95,0.33,1.21c0.22,0.26,0.59,0.39,1.1,0.39
		c0.5,0,0.85-0.13,1.08-0.39s0.33-0.67,0.33-1.22v-4.36H51.57z"/>
	<path class="st4" d="M53.32,33.61h2.22c1.01,0,1.75,0.14,2.2,0.43s0.69,0.75,0.69,1.37c0,0.43-0.1,0.78-0.3,1.05
		s-0.47,0.44-0.8,0.49V37c0.45,0.1,0.78,0.29,0.98,0.57s0.3,0.64,0.3,1.1c0,0.65-0.23,1.16-0.71,1.52s-1.11,0.55-1.92,0.55h-2.67
		V33.61z M54.84,36.43h0.88c0.41,0,0.71-0.06,0.89-0.19s0.28-0.34,0.28-0.63c0-0.27-0.1-0.47-0.3-0.59s-0.52-0.18-0.95-0.18h-0.8
		V36.43z M54.84,37.63v1.86h0.99c0.42,0,0.72-0.08,0.92-0.24c0.2-0.16,0.3-0.4,0.3-0.73c0-0.59-0.42-0.89-1.27-0.89H54.84z"/>
	<path class="st4" d="M60.04,40.74v-7.14h1.51v5.89h2.9v1.25H60.04z"/>
	<path class="st4" d="M65.69,40.74v-7.14h1.51v7.14H65.69z"/>
	<path class="st4" d="M73.22,38.76c0,0.64-0.23,1.15-0.7,1.52c-0.46,0.37-1.11,0.56-1.94,0.56c-0.76,0-1.44-0.14-2.02-0.43v-1.41
		c0.48,0.21,0.89,0.37,1.22,0.45c0.33,0.09,0.64,0.13,0.92,0.13c0.33,0,0.59-0.06,0.76-0.19c0.18-0.13,0.27-0.32,0.27-0.57
		c0-0.14-0.04-0.26-0.12-0.37s-0.19-0.21-0.34-0.31c-0.15-0.1-0.46-0.26-0.92-0.48c-0.44-0.21-0.76-0.4-0.98-0.59
		s-0.39-0.41-0.52-0.66s-0.2-0.54-0.2-0.88c0-0.63,0.21-1.13,0.64-1.49c0.43-0.36,1.02-0.54,1.78-0.54c0.37,0,0.72,0.04,1.06,0.13
		c0.34,0.09,0.69,0.21,1.06,0.37l-0.49,1.18c-0.38-0.16-0.7-0.27-0.95-0.33c-0.25-0.06-0.49-0.09-0.73-0.09
		c-0.29,0-0.51,0.07-0.66,0.2s-0.23,0.31-0.23,0.52c0,0.13,0.03,0.25,0.09,0.35s0.16,0.2,0.3,0.29c0.13,0.09,0.45,0.26,0.96,0.5
		c0.67,0.32,1.13,0.64,1.37,0.96S73.22,38.3,73.22,38.76z"/>
	<path class="st4" d="M80.36,40.74h-1.51v-3.08h-2.83v3.08h-1.51v-7.14h1.51v2.8h2.83v-2.8h1.51V40.74z"/>
	<path class="st4" d="M86.27,40.74h-4.11v-7.14h4.11v1.24h-2.6v1.57h2.42v1.24h-2.42v1.84h2.6V40.74z"/>
	<path class="st4" d="M89.28,38.01v2.74h-1.51v-7.14h2.08c0.97,0,1.69,0.18,2.15,0.53s0.7,0.89,0.7,1.61c0,0.42-0.12,0.79-0.35,1.12
		s-0.56,0.58-0.98,0.77c1.07,1.6,1.77,2.64,2.1,3.11h-1.68l-1.7-2.74H89.28z M89.28,36.77h0.49c0.48,0,0.83-0.08,1.06-0.24
		s0.34-0.41,0.34-0.75c0-0.34-0.12-0.58-0.35-0.72c-0.23-0.14-0.59-0.21-1.08-0.21h-0.46V36.77z"/>
	<path class="st4" d="M98.58,38.76c0,0.64-0.23,1.15-0.7,1.52c-0.46,0.37-1.11,0.56-1.94,0.56c-0.76,0-1.44-0.14-2.02-0.43v-1.41
		c0.48,0.21,0.89,0.37,1.22,0.45c0.33,0.09,0.64,0.13,0.92,0.13c0.33,0,0.59-0.06,0.76-0.19c0.18-0.13,0.27-0.32,0.27-0.57
		c0-0.14-0.04-0.26-0.12-0.37s-0.19-0.21-0.34-0.31c-0.15-0.1-0.46-0.26-0.92-0.48c-0.44-0.21-0.76-0.4-0.98-0.59
		s-0.39-0.41-0.52-0.66s-0.2-0.54-0.2-0.88c0-0.63,0.21-1.13,0.64-1.49c0.43-0.36,1.02-0.54,1.78-0.54c0.37,0,0.72,0.04,1.06,0.13
		c0.34,0.09,0.69,0.21,1.06,0.37l-0.49,1.18c-0.38-0.16-0.7-0.27-0.95-0.33c-0.25-0.06-0.49-0.09-0.73-0.09
		c-0.29,0-0.51,0.07-0.66,0.2s-0.23,0.31-0.23,0.52c0,0.13,0.03,0.25,0.09,0.35s0.16,0.2,0.3,0.29c0.13,0.09,0.45,0.26,0.96,0.5
		c0.67,0.32,1.13,0.64,1.37,0.96S98.58,38.3,98.58,38.76z"/>
</g>
<path class="st4" d="M71.93,11.62c0.85-1,1.35-2.25,1.35-3.6s-0.51-2.6-1.35-3.6l1.57-1.44c1.26,1.38,2.02,3.12,2.02,5.04
	s-0.77,3.66-2.02,5.04C73.5,13.06,71.93,11.62,71.93,11.62z M60.94,1.55l-1.57-1.44C57.28,2.22,56,4.98,56,8.02s1.28,5.8,3.36,7.92
	l1.57-1.44c-1.67-1.75-2.7-4-2.7-6.47S59.26,3.29,60.94,1.55z M62.5,13.06l1.57-1.44c-0.85-1-1.35-2.25-1.35-3.6s0.51-2.6,1.35-3.6
	L62.5,2.98c-1.26,1.38-2.02,3.12-2.02,5.04S61.24,11.69,62.5,13.06z M76.64,0.11l-1.57,1.44c1.67,1.75,2.7,4,2.7,6.48
	s-1.03,4.73-2.7,6.47l1.57,1.44C78.72,13.82,80,11.06,80,8.02S78.72,2.22,76.64,0.11z M64.07,24.11c0.63-1.63,2.19-2.7,3.93-2.7
	s3.3,1.07,3.93,2.7h2.15L69,10.84c1.16-0.41,2-1.51,2-2.82c0-1.66-1.34-3-3-3s-3,1.34-3,3c0,1.3,0.84,2.4,2,2.82l-5.04,13.27H64.07z
	"/>
<g>
	<g>
		<path class="st4" d="M61.14,98.03c-0.66,0-1.14,0.19-1.44,0.57s-0.44,1.02-0.44,1.92s0.15,1.55,0.45,1.94s0.78,0.58,1.45,0.58
			c0.6,0,1.04-0.22,1.34-0.65s0.44-1.06,0.44-1.88c0-0.84-0.15-1.46-0.44-1.87S61.75,98.03,61.14,98.03z"/>
	</g>
	<g>
		<path class="st4" d="M71.13,98.02c-0.52,0-0.93,0.17-1.23,0.5s-0.49,0.8-0.54,1.39h3.36c0-0.61-0.14-1.08-0.41-1.41
			S71.64,98.02,71.13,98.02z"/>
	</g>
	<g>
		<path class="st4" d="M35.95,97.65c0-0.57-0.17-0.97-0.5-1.22s-0.87-0.38-1.61-0.38h-1.29v3.28h1.37c0.7,0,1.22-0.14,1.55-0.42
			S35.95,98.21,35.95,97.65z"/>
	</g>
	<g>
		<path class="st4" d="M81.29,96.23c-0.09,0.38-0.21,0.79-0.37,1.24l-1.01,2.65h2.77l-1-2.65C81.56,97.13,81.43,96.72,81.29,96.23z"
			/>
	</g>
	<g>
		<path class="st4" d="M41.27,98.02c-0.52,0-0.93,0.17-1.23,0.5s-0.49,0.8-0.54,1.39h3.36c0-0.61-0.14-1.08-0.41-1.41
			S41.77,98.02,41.27,98.02z"/>
	</g>
	<g>
		<path class="st4" d="M52.67,100.99c-0.34,0.21-0.51,0.54-0.51,0.99c0,0.35,0.11,0.62,0.32,0.8s0.51,0.28,0.89,0.28
			c0.61,0,1.08-0.17,1.43-0.5s0.52-0.8,0.52-1.39v-0.58l-0.97,0.04C53.57,100.65,53.01,100.77,52.67,100.99z"/>
	</g>
	<g>
		<path class="st4" d="M98.65,98.03c-0.64,0-1.12,0.21-1.44,0.63s-0.49,1.04-0.49,1.87c0,0.82,0.16,1.45,0.49,1.88
			s0.81,0.64,1.45,0.64s1.12-0.21,1.45-0.64s0.5-1.05,0.5-1.88c0-0.82-0.17-1.44-0.5-1.86S99.3,98.03,98.65,98.03z"/>
	</g>
	<g>
		<path class="st4" d="M173.39,111.56l-8.93-6.85l-0.94,3.75l-5.67-1.61c0.37-1.18,0.58-2.44,0.58-3.74
			c0-6.85-5.57-12.42-12.42-12.42c-5.8,0-10.68,4.01-12.03,9.4L127,98.11v-19H10v39h117V99.15l6.76,1.92
			c-0.11,0.67-0.18,1.35-0.18,2.04c0,6.85,5.57,12.42,12.42,12.42c5.19,0,9.64-3.2,11.5-7.74l5.77,1.64l-0.99,3.93L173.39,111.56z
			 M36.4,103.74l-2.07-3.56h-1.79v3.56h-1v-8.57h2.35c1.05,0,1.83,0.2,2.33,0.6s0.75,1.01,0.75,1.82c0,1.13-0.57,1.9-1.72,2.3
			l2.33,3.85H36.4z M43.89,100.71h-4.42c0.02,0.75,0.21,1.33,0.57,1.72s0.87,0.59,1.53,0.59c0.69,0,1.38-0.14,2.05-0.43v0.87
			c-0.34,0.15-0.67,0.25-0.98,0.32s-0.68,0.1-1.11,0.1c-0.95,0-1.7-0.29-2.25-0.87s-0.82-1.38-0.82-2.41c0-1.04,0.25-1.86,0.76-2.47
			s1.19-0.91,2.05-0.91c0.8,0,1.44,0.26,1.91,0.79s0.7,1.23,0.7,2.09V100.71z M46.52,103.74h-0.97v-9.12h0.97V103.74z M49.56,103.74
			h-0.97v-6.42h0.97V103.74z M49.48,96.07c-0.11,0.11-0.25,0.16-0.4,0.16c-0.16,0-0.3-0.05-0.41-0.16s-0.16-0.27-0.16-0.49
			c0-0.22,0.05-0.39,0.16-0.49s0.25-0.16,0.41-0.16c0.16,0,0.29,0.05,0.4,0.16s0.17,0.27,0.17,0.49S49.59,95.96,49.48,96.07z
			 M56.29,103.74h-0.72l-0.19-0.91h-0.05c-0.32,0.4-0.64,0.67-0.96,0.82s-0.72,0.21-1.19,0.21c-0.64,0-1.14-0.16-1.5-0.49
			s-0.54-0.79-0.54-1.4c0-1.3,1.04-1.98,3.11-2.04l1.09-0.04v-0.4c0-0.5-0.11-0.88-0.33-1.12s-0.56-0.36-1.04-0.36
			c-0.54,0-1.14,0.16-1.82,0.49l-0.3-0.74c0.32-0.17,0.66-0.31,1.04-0.4s0.75-0.15,1.13-0.15c0.77,0,1.33,0.17,1.7,0.51
			s0.55,0.88,0.55,1.63V103.74z M63.24,102.99c-0.47,0.58-1.12,0.88-1.96,0.88c-0.42,0-0.8-0.08-1.15-0.23s-0.64-0.39-0.87-0.71
			H59.2l-0.21,0.83h-0.7v-9.12h0.97v2.21c0,0.5-0.02,0.94-0.05,1.34h0.05c0.45-0.64,1.13-0.96,2.02-0.96c0.84,0,1.5,0.29,1.97,0.86
			s0.7,1.39,0.7,2.45S63.71,102.4,63.24,102.99z M66.62,103.74h-0.97v-9.12h0.97V103.74z M73.76,100.71h-4.42
			c0.02,0.75,0.21,1.33,0.57,1.72s0.87,0.59,1.53,0.59c0.69,0,1.38-0.14,2.05-0.43v0.87c-0.34,0.15-0.67,0.25-0.98,0.32
			s-0.68,0.1-1.11,0.1c-0.95,0-1.7-0.29-2.25-0.87s-0.82-1.38-0.82-2.41c0-1.04,0.25-1.86,0.76-2.47s1.19-0.91,2.05-0.91
			c0.8,0,1.44,0.26,1.91,0.79s0.7,1.23,0.7,2.09V100.71z M84.06,103.74L83,101.02h-3.43l-1.05,2.72H77.5l3.39-8.6h0.84l3.37,8.6
			H84.06z M87.25,102.38c0.32,0.42,0.79,0.63,1.42,0.63c0.54,0,1.08-0.12,1.65-0.35v0.86c-0.43,0.22-0.97,0.33-1.62,0.33
			c-0.93,0-1.65-0.29-2.16-0.86s-0.76-1.38-0.76-2.43c0-1.07,0.26-1.9,0.78-2.49s1.25-0.88,2.21-0.88c0.31,0,0.62,0.03,0.93,0.1
			s0.55,0.14,0.73,0.23l-0.3,0.83c-0.21-0.09-0.45-0.16-0.7-0.21s-0.48-0.08-0.67-0.08c-1.3,0-1.96,0.83-1.96,2.5
			C86.78,101.35,86.94,101.96,87.25,102.38z M94.79,103.69c-0.11,0.05-0.26,0.09-0.47,0.13s-0.39,0.05-0.55,0.05
			c-1.24,0-1.86-0.65-1.86-1.96v-3.82h-0.92v-0.47l0.92-0.4l0.41-1.37h0.56v1.49h1.86v0.76h-1.86v3.78c0,0.39,0.09,0.68,0.28,0.89
			s0.44,0.31,0.76,0.31c0.17,0,0.34-0.01,0.5-0.04s0.29-0.05,0.38-0.08V103.69z M100.83,102.98c-0.53,0.59-1.26,0.88-2.19,0.88
			c-0.57,0-1.08-0.13-1.53-0.4s-0.79-0.66-1.03-1.16s-0.36-1.09-0.36-1.77c0-1.05,0.26-1.86,0.79-2.45s1.25-0.88,2.18-0.88
			c0.9,0,1.61,0.3,2.14,0.9s0.79,1.41,0.79,2.43C101.62,101.57,101.35,102.39,100.83,102.98z M106.89,98.18
			c-0.27-0.06-0.5-0.09-0.7-0.09c-0.52,0-0.96,0.21-1.33,0.63s-0.55,0.95-0.55,1.58v3.45h-0.97v-6.42h0.8l0.11,1.19h0.05
			c0.24-0.42,0.53-0.74,0.86-0.97s0.71-0.34,1.11-0.34c0.29,0,0.54,0.02,0.77,0.07L106.89,98.18z M146,114.52
			c-6.29,0-11.41-5.12-11.41-11.41s5.12-11.41,11.41-11.41s11.41,5.12,11.41,11.41S152.29,114.52,146,114.52z"/>
	</g>
</g>
<g>
	<polygon class="st4" points="146,103.8 138.75,98.26 153.25,98.26 	"/>
	<polygon class="st4" points="146,105.36 138.74,99.75 138.74,107.95 153.26,107.95 153.26,99.75 	"/>
</g>
<g>
	<g>
		<path class="st4" d="M82.56,172.02c-0.52,0-0.93,0.17-1.23,0.5s-0.49,0.8-0.54,1.39h3.36c0-0.61-0.14-1.08-0.41-1.41
			S83.07,172.02,82.56,172.02z"/>
	</g>
	<g>
		<path class="st4" d="M66.12,172.02c-0.52,0-0.93,0.17-1.23,0.5s-0.49,0.8-0.54,1.39h3.36c0-0.61-0.14-1.08-0.41-1.41
			S66.63,172.02,66.12,172.02z"/>
	</g>
	<g>
		<path class="st4" d="M47.66,174.99c-0.34,0.21-0.51,0.54-0.51,0.99c0,0.35,0.11,0.62,0.32,0.8s0.51,0.28,0.89,0.28
			c0.61,0,1.08-0.17,1.43-0.5s0.52-0.8,0.52-1.39v-0.58l-0.97,0.04C48.56,174.65,48,174.77,47.66,174.99z"/>
	</g>
	<g>
		<path class="st4" d="M36.26,172.02c-0.52,0-0.93,0.17-1.23,0.5s-0.49,0.8-0.54,1.39h3.36c0-0.61-0.14-1.08-0.41-1.41
			S36.76,172.02,36.26,172.02z"/>
	</g>
	<g>
		<path class="st4" d="M56.13,172.03c-0.66,0-1.14,0.19-1.44,0.57s-0.44,1.02-0.44,1.92s0.15,1.55,0.45,1.94s0.78,0.58,1.45,0.58
			c0.6,0,1.04-0.22,1.34-0.65s0.44-1.06,0.44-1.88c0-0.84-0.15-1.46-0.44-1.87S56.75,172.03,56.13,172.03z"/>
	</g>
	<g>
		<path class="st4" d="M108.95,172.02c-0.52,0-0.93,0.17-1.23,0.5s-0.49,0.8-0.54,1.39h3.36c0-0.61-0.14-1.08-0.41-1.41
			S109.46,172.02,108.95,172.02z"/>
	</g>
	<g>
		<path class="st4" d="M30.94,171.65c0-0.57-0.17-0.97-0.5-1.22s-0.87-0.38-1.61-0.38h-1.29v3.28h1.37c0.7,0,1.22-0.14,1.55-0.42
			S30.94,172.21,30.94,171.65z"/>
	</g>
	<g>
		<path class="st4" d="M162.28,158.99l0.99,3.93l-5.42,1.54c0,0,0,0,0,0c-0.82-2.65-2.49-4.93-4.71-6.5
			c-2.25-3.19-5.96-5.28-10.14-5.28c-6.85,0-12.42,5.57-12.42,12.42c0,2.41,0.71,4.64,1.9,6.54L127,173.2v-20.1H10v39h117v-17.86
			l6.07-1.72c0.78,1.04,1.72,1.97,2.78,2.73c2.25,3.19,5.95,5.28,10.14,5.28c6.85,0,12.42-5.57,12.42-12.42
			c0-0.92-0.12-1.82-0.31-2.68l5.4-1.53l0.94,3.75l8.93-6.85L162.28,158.99z M31.39,177.74l-2.07-3.56h-1.79v3.56h-1v-8.57h2.35
			c1.05,0,1.83,0.2,2.33,0.6s0.75,1.01,0.75,1.82c0,1.13-0.57,1.9-1.72,2.3l2.33,3.85H31.39z M38.88,174.71h-4.42
			c0.02,0.75,0.21,1.33,0.57,1.72s0.87,0.59,1.53,0.59c0.69,0,1.38-0.14,2.05-0.43v0.87c-0.34,0.15-0.67,0.25-0.98,0.32
			s-0.68,0.1-1.11,0.1c-0.95,0-1.7-0.29-2.25-0.87s-0.82-1.38-0.82-2.41c0-1.04,0.25-1.86,0.76-2.47s1.19-0.91,2.05-0.91
			c0.8,0,1.44,0.26,1.91,0.79s0.7,1.23,0.7,2.09V174.71z M41.51,177.74h-0.97v-9.12h0.97V177.74z M44.55,177.74h-0.97v-6.42h0.97
			V177.74z M44.47,170.07c-0.11,0.11-0.25,0.16-0.4,0.16c-0.16,0-0.3-0.05-0.41-0.16s-0.16-0.27-0.16-0.49
			c0-0.22,0.05-0.39,0.16-0.49s0.25-0.16,0.41-0.16c0.16,0,0.29,0.05,0.4,0.16s0.17,0.27,0.17,0.49S44.58,169.96,44.47,170.07z
			 M51.28,177.74h-0.72l-0.19-0.91h-0.05c-0.32,0.4-0.64,0.67-0.96,0.82s-0.72,0.21-1.19,0.21c-0.64,0-1.14-0.16-1.5-0.49
			s-0.54-0.79-0.54-1.4c0-1.3,1.04-1.98,3.11-2.04l1.09-0.04v-0.4c0-0.5-0.11-0.88-0.33-1.12s-0.56-0.36-1.04-0.36
			c-0.54,0-1.14,0.16-1.82,0.49l-0.3-0.74c0.32-0.17,0.66-0.31,1.04-0.4s0.75-0.15,1.13-0.15c0.77,0,1.33,0.17,1.7,0.51
			s0.55,0.88,0.55,1.63V177.74z M58.23,176.99c-0.47,0.58-1.12,0.88-1.96,0.88c-0.42,0-0.8-0.08-1.15-0.23s-0.64-0.39-0.87-0.71
			h-0.07l-0.21,0.83h-0.7v-9.12h0.97v2.21c0,0.5-0.02,0.94-0.05,1.34h0.05c0.45-0.64,1.13-0.96,2.02-0.96c0.84,0,1.5,0.29,1.97,0.86
			s0.7,1.39,0.7,2.45S58.7,176.4,58.23,176.99z M61.61,177.74h-0.97v-9.12h0.97V177.74z M68.75,174.71h-4.42
			c0.02,0.75,0.21,1.33,0.57,1.72s0.87,0.59,1.53,0.59c0.69,0,1.38-0.14,2.05-0.43v0.87c-0.34,0.15-0.67,0.25-0.98,0.32
			s-0.68,0.1-1.11,0.1c-0.95,0-1.7-0.29-2.25-0.87s-0.82-1.38-0.82-2.41c0-1.04,0.25-1.86,0.76-2.47s1.19-0.91,2.05-0.91
			c0.8,0,1.44,0.26,1.91,0.79s0.7,1.23,0.7,2.09V174.71z M77.68,177.23c-0.55,0.42-1.29,0.63-2.23,0.63c-1.02,0-1.8-0.13-2.34-0.39
			v-0.96c0.35,0.15,0.73,0.27,1.15,0.35s0.82,0.13,1.23,0.13c0.66,0,1.16-0.13,1.5-0.38s0.5-0.6,0.5-1.05c0-0.3-0.06-0.54-0.18-0.73
			s-0.32-0.36-0.6-0.52s-0.7-0.34-1.27-0.54c-0.8-0.29-1.37-0.62-1.71-1.01s-0.51-0.9-0.51-1.53c0-0.66,0.25-1.19,0.74-1.58
			s1.15-0.59,1.97-0.59c0.85,0,1.63,0.16,2.35,0.47l-0.31,0.87c-0.71-0.3-1.39-0.45-2.06-0.45c-0.53,0-0.94,0.11-1.24,0.34
			s-0.45,0.54-0.45,0.94c0,0.3,0.05,0.54,0.16,0.73s0.29,0.36,0.55,0.52s0.66,0.33,1.19,0.52c0.9,0.32,1.52,0.66,1.85,1.03
			s0.51,0.84,0.51,1.43C78.5,176.22,78.23,176.81,77.68,177.23z M85.18,174.71h-4.42c0.02,0.75,0.21,1.33,0.57,1.72
			s0.87,0.59,1.53,0.59c0.69,0,1.38-0.14,2.05-0.43v0.87c-0.34,0.15-0.67,0.25-0.98,0.32s-0.68,0.1-1.11,0.1
			c-0.95,0-1.7-0.29-2.25-0.87s-0.82-1.38-0.82-2.41c0-1.04,0.25-1.86,0.76-2.47s1.19-0.91,2.05-0.91c0.8,0,1.44,0.26,1.91,0.79
			s0.7,1.23,0.7,2.09V174.71z M90.4,172.18c-0.27-0.06-0.5-0.09-0.7-0.09c-0.52,0-0.96,0.21-1.33,0.63s-0.55,0.95-0.55,1.58v3.45
			h-0.97v-6.42h0.8l0.11,1.19h0.05c0.24-0.42,0.53-0.74,0.86-0.97s0.71-0.34,1.11-0.34c0.29,0,0.54,0.02,0.77,0.07L90.4,172.18z
			 M94.28,177.74h-1.14l-2.44-6.42h1.04l1.38,3.81c0.31,0.89,0.5,1.47,0.55,1.73h0.05c0.04-0.21,0.18-0.64,0.41-1.29
			s0.74-2.07,1.54-4.26h1.04L94.28,177.74z M98.72,177.74h-0.97v-6.42h0.97V177.74z M98.65,170.07c-0.11,0.11-0.25,0.16-0.4,0.16
			c-0.16,0-0.3-0.05-0.41-0.16s-0.16-0.27-0.16-0.49c0-0.22,0.05-0.39,0.16-0.49s0.25-0.16,0.41-0.16c0.16,0,0.29,0.05,0.4,0.16
			s0.17,0.27,0.17,0.49S98.76,169.96,98.65,170.07z M101.91,176.38c0.32,0.42,0.79,0.63,1.42,0.63c0.54,0,1.08-0.12,1.65-0.35v0.86
			c-0.43,0.22-0.97,0.33-1.62,0.33c-0.93,0-1.65-0.29-2.16-0.86s-0.76-1.38-0.76-2.43c0-1.07,0.26-1.9,0.78-2.49
			s1.25-0.88,2.21-0.88c0.31,0,0.62,0.03,0.93,0.1s0.55,0.14,0.73,0.23l-0.3,0.83c-0.21-0.09-0.45-0.16-0.7-0.21
			s-0.48-0.08-0.67-0.08c-1.3,0-1.96,0.83-1.96,2.5C101.44,175.35,101.6,175.96,101.91,176.38z M111.57,174.71h-4.42
			c0.02,0.75,0.21,1.33,0.57,1.72s0.87,0.59,1.53,0.59c0.69,0,1.38-0.14,2.05-0.43v0.87c-0.34,0.15-0.67,0.25-0.98,0.32
			s-0.68,0.1-1.11,0.1c-0.95,0-1.7-0.29-2.25-0.87s-0.82-1.38-0.82-2.41c0-1.04,0.25-1.86,0.76-2.47s1.19-0.91,2.05-0.91
			c0.8,0,1.44,0.26,1.91,0.79s0.7,1.23,0.7,2.09V174.71z M131.59,165.11c0-6.29,5.12-11.41,11.41-11.41s11.41,5.12,11.41,11.41
			s-5.12,11.41-11.41,11.41S131.59,171.4,131.59,165.11z M146,179.52c-2.88,0-5.51-1.08-7.53-2.86c1.4,0.55,2.93,0.87,4.53,0.87
			c6.85,0,12.42-5.57,12.42-12.42c0-1.6-0.31-3.12-0.87-4.53c0,0,0,0,0,0c1.77,2.01,2.86,4.64,2.86,7.53
			C157.41,174.4,152.29,179.52,146,179.52z"/>
	</g>
</g>
<g>
	<path class="st0" d="M137,154.24c0.32-0.18,0.66-0.34,1-0.49V112.6c-0.35-0.3-0.68-0.62-1-0.95V154.24z"/>
	<path class="st0" d="M137,176.63v45.48H1v-168h136v40.46c0.32-0.33,0.65-0.65,1-0.95V53.11H0v170h138v-45.53
		C137.65,177.28,137.32,176.96,137,176.63z"/>
</g>
<g>
	<polygon class="st4" points="143,165.8 135.75,160.26 150.25,160.26 	"/>
	<polygon class="st4" points="143,167.36 135.74,161.75 135.74,169.95 150.26,169.95 150.26,161.75 	"/>
</g>
<path class="st0" d="M318.58,90.11c0-0.53,0.04-1.05,0.11-1.56c-15.44-22.21-41.14-36.78-70.18-36.78c-36,0-66.85,22.4-79.4,53.98
	l0.83,0.64c12.34-31.35,42.89-53.61,78.57-53.61c29.17,0,54.92,14.89,70.08,37.46C318.58,90.2,318.58,90.15,318.58,90.11z"/>
<g>
	<polygon class="st1" points="331,90.8 323.75,85.26 338.25,85.26 	"/>
	<polygon class="st1" points="331,92.36 323.74,86.75 323.74,94.95 338.26,94.95 338.26,86.75 	"/>
</g>
<rect x="-494" y="619" class="st5" width="137" height="169"/>
<g>
	<polygon class="st1" points="-500.54,757.37 -546.29,744.4 -545.2,740.55 -499.56,753.49 -498.44,749.02 -484.94,759.37 
		-501.73,762.1 	"/>
	<path class="st6" d="M-544.17,742.4l45.68,12.95l0.94-3.75l8.93,6.85l-11.11,1.8l0.99-3.93l-45.71-12.95L-544.17,742.4
		 M-546.23,738.7l-0.82,2.88l-0.27,0.96l-0.82,2.89l2.89,0.82l42.91,12.16l-0.28,1.11l-1.11,4.42l4.5-0.73l11.11-1.8l6.86-1.11
		l-5.52-4.23l-8.93-6.85l-3.62-2.78l-1.11,4.42l-0.19,0.75l-42.71-12.1L-546.23,738.7L-546.23,738.7z"/>
</g>
<path id="Circle_Outer_28_" class="st7" d="M-608.5,788c-46.9,0-84.92-38.02-84.92-84.92c0-46.9,38.02-84.92,84.92-84.92
	c46.9,0,84.92,38.02,84.92,84.92C-523.58,749.98-561.6,788-608.5,788z"/>
<g>
	<polygon class="st1" points="-498.48,706.68 -545.77,706.65 -545.77,702.65 -498.48,702.68 -498.48,697.95 -482.86,704.69 
		-498.48,711.43 	"/>
	<path class="st6" d="M-496.98,700.23l10.33,4.46l-10.33,4.46v-3.96l-47.29-0.04v-1l47.29,0.04V700.23 M-499.98,695.66v4.56v0.96
		l-44.29-0.04l-3,0v3v1v3l3,0l44.29,0.04v0.96v4.56l4.19-1.81l10.33-4.46l6.38-2.75l-6.38-2.75l-10.33-4.46L-499.98,695.66
		L-499.98,695.66z"/>
</g>
<g>
	<polygon class="st1" points="-546.29,666.74 -500.54,653.77 -501.73,649.04 -484.94,651.76 -498.44,662.11 -499.56,657.65 
		-545.2,670.59 	"/>
	<path class="st6" d="M-499.72,650.88l11.11,1.8l-8.93,6.85l-0.94-3.75l-45.68,12.95l-0.27-0.96l45.71-12.95L-499.72,650.88
		 M-503.74,647.19l1.11,4.42l0.28,1.11l-42.91,12.16l-2.89,0.82l0.82,2.89l0.27,0.96l0.82,2.88l2.88-0.82l42.71-12.1l0.19,0.75
		l1.11,4.42l3.62-2.78l8.93-6.85l5.52-4.23l-6.86-1.11l-11.11-1.8L-503.74,647.19L-503.74,647.19z"/>
</g>
<g>
	<polygon class="st4" points="-694.94,676.02 -740.67,663.06 -739.86,660.17 -694.2,673.11 -693.14,668.88 -681.16,678.07 
		-696.06,680.48 	"/>
	<path class="st6" d="M-739.17,661.4l45.68,12.95l0.94-3.75l8.93,6.85l-11.11,1.8l0.99-3.93l-45.71-12.95L-739.17,661.4
		 M-740.55,658.93l-0.54,1.93l-0.27,0.96l-0.54,1.92l1.92,0.55l43.84,12.42l-0.52,2.05l-0.74,2.95l3-0.49l11.11-1.8l4.57-0.74
		l-3.68-2.82l-8.93-6.85l-2.41-1.85l-0.74,2.95l-0.44,1.75l-43.7-12.38L-740.55,658.93L-740.55,658.93z"/>
</g>
<g>
	<polygon class="st4" points="-740.67,741.08 -694.94,728.12 -696.06,723.65 -681.16,726.07 -693.14,735.25 -694.2,731.03 
		-739.86,743.97 	"/>
	<path class="st6" d="M-694.72,724.88l11.11,1.8l-8.93,6.85l-0.94-3.75l-45.68,12.95l-0.27-0.96l45.71-12.95L-694.72,724.88
		 M-697.4,722.42l0.74,2.95l0.52,2.05l-43.84,12.42l-1.92,0.55l0.54,1.92l0.27,0.96l0.54,1.93l1.92-0.55l43.7-12.38l0.44,1.75
		l0.74,2.95l2.41-1.85l8.93-6.85l3.68-2.82l-4.57-0.74l-11.11-1.8L-697.4,722.42L-697.4,722.42z"/>
</g>
<rect x="-856.5" y="619.5" class="st5" width="137" height="169"/>
<rect x="-847" y="645" class="st4" width="117" height="39"/>
<path id="Circle_Outer_27_" class="st7" d="M-768.5,329.59c-34.52,0-62.5-27.98-62.5-62.5c0-34.52,27.98-62.5,62.5-62.5
	c34.52,0,62.5,27.98,62.5,62.5C-705.99,301.6-733.98,329.59-768.5,329.59z"/>
<path id="Circle_Outer_26_" class="st7" d="M-608.5,346.58c-43.91,0-79.5-35.59-79.5-79.5c0-43.91,35.59-79.5,79.5-79.5
	c43.9,0,79.5,35.59,79.5,79.5C-529,310.99-564.59,346.58-608.5,346.58z"/>
<path id="Circle_8_" class="st1" d="M-608.5,343.36c-42.13,0-76.28-34.15-76.28-76.28c0-42.13,34.15-76.28,76.28-76.28
	c42.13,0,76.28,34.15,76.28,76.28C-532.22,309.21-566.37,343.36-608.5,343.36z"/>
<text transform="matrix(1 0 0 1 -632.2998 270.6377)" class="st6" style="font-family:'OpenSans-Bold'; font-size:13px;">Broker</text>
<text transform="matrix(1 0 0 1 -649.0996 286.6377)" class="st6" style="font-family:'OpenSans'; font-size:12px;">Stateful Service</text>
<path id="Circle_Outer_25_" class="st7" d="M-446.5,329.59c-34.52,0-62.5-27.98-62.5-62.5c0-34.52,27.98-62.5,62.5-62.5
	c34.52,0,62.5,27.98,62.5,62.5C-383.99,301.6-411.98,329.59-446.5,329.59z"/>
<path id="Circle_7_" class="st3" d="M-446.5,326.06c-32.57,0-58.97-26.4-58.97-58.97c0-32.57,26.4-58.97,58.97-58.97
	c32.57,0,58.97,26.4,58.97,58.97C-387.53,299.65-413.93,326.06-446.5,326.06z"/>
<path class="st2" d="M-606.83,241.64c0.87,0.63,1.06,1.86,0.42,2.73l-2.24,3.03c-0.6,0.81-1.89,1.04-2.73,0.42
	c-0.87-0.64-1.06-1.86-0.42-2.73l2.24-3.03C-608.93,241.19-607.7,240.99-606.83,241.64L-606.83,241.64z M-620.49,238.74l2.24-3.01
	c0.64-0.87,0.45-2.09-0.42-2.73c-0.88-0.64-2.09-0.45-2.73,0.42l-2.23,3.01c-0.64,0.87-0.45,2.09,0.42,2.73
	C-622.39,239.77-621.09,239.57-620.49,238.74z M-613.51,239.18l-2.23,3.01c-0.64,0.87-0.45,2.1,0.42,2.74
	c0.83,0.61,2.13,0.4,2.73-0.42l2.23-3.01c0.64-0.87,0.45-2.09-0.42-2.73C-611.65,238.12-612.87,238.31-613.51,239.18z
	 M-603.64,245.04c-0.35,0.84-1.31,2.01-1.96,2.89c0.43,0.22,0.86,0.31,1.25,0.31c1.5,0,2.5-1.42,1.15-2.77L-603.64,245.04z
	 M-617.46,236.3l-2.25,3.04c-0.64,0.87-0.43,2.07,0.43,2.71c0.85,0.62,2.13,0.42,2.72-0.4l2.25-3.04c0.64-0.86,0.45-2.09-0.42-2.73
	C-615.6,235.24-616.82,235.43-617.46,236.3L-617.46,236.3z M-582.14,234.05l8.14-2.16l-4.39-16.89l-8.25,2.48L-582.14,234.05z
	 M-589.02,219.3c-4.03,0.29-7.85-1.19-12.06-3.36c-0.93-0.48-1.99-0.86-3.03-0.86c-0.96,0-1.9,0.33-2.68,1.22
	c-2.84,3.22-4.49,6.06-7.87,8.03c-1.67,0.97,0.29,4.02,3.87,2.77c1.82-0.64,4.29-2.29,6.31-3.92c1.58-1.28,2.53-1.09,3.91,0.28
	c2.57,2.57,11.23,11.12,11.23,11.12c1.34-0.83,2.63-1.49,3.92-2.07C-585.43,232.52-589.02,219.3-589.02,219.3z M-627.86,217.48
	l-8.25-2.48l-4.39,16.89l8.14,2.16L-627.86,217.48z M-590.71,237.23c-1.34-1.48-10.35-10.34-11.96-11.94
	c-2.72,2.04-6.3,4.88-9.76,4.88c-2.61,0-4.85-1.54-5.45-3.75c-0.48-1.76,0.26-3.56,1.83-4.48c1.97-1.15,3.27-2.72,4.86-4.69
	c-4.86-3.07-9.01,1.92-14.27,1.96l-3.53,12.98c1.54,0.37,2.88,0.75,4.13,1.22l1.22-1.65c2.19-3,6.77-2.37,8.17,0.97
	c1.77,0.16,3.29,1.3,3.95,2.88c1.72,0.15,3.25,1.24,3.94,2.88c2.59,0.22,4.71,2.58,4.24,5.46l1.81,1.81c0.76,0.76,2,0.76,2.76,0
	c0.76-0.76,0.76-2,0-2.77l-3.5-3.51c-0.19-0.19-0.19-0.51,0.01-0.7c0.19-0.18,0.5-0.18,0.68,0.01l4.22,4.22c0.76,0.76,2,0.76,2.77,0
	c0.76-0.76,0.76-2,0-2.77l-5.2-5.2c-0.2-0.2-0.19-0.52,0.02-0.71c0.19-0.17,0.49-0.17,0.67,0.01l5.61,5.61c0.76,0.76,2,0.76,2.77,0
	C-589.95,239.23-589.95,237.99-590.71,237.23z"/>
<path id="Circle_6_" class="st1" d="M-608.5,779.36c-42.13,0-76.28-34.15-76.28-76.28c0-42.13,34.15-76.28,76.28-76.28
	c42.13,0,76.28,34.15,76.28,76.28C-532.22,745.21-566.37,779.36-608.5,779.36z"/>
<text transform="matrix(1 0 0 1 -632.2998 716.6377)" class="st6" style="font-family:'OpenSans-Bold'; font-size:13px;">Broker</text>
<text transform="matrix(1 0 0 1 -649.0996 734.6377)" class="st6" style="font-family:'OpenSans'; font-size:12px;">Stateful Service</text>
<path class="st2" d="M-606.83,686.64c0.87,0.63,1.06,1.86,0.42,2.73l-2.24,3.03c-0.6,0.81-1.89,1.04-2.73,0.42
	c-0.87-0.64-1.06-1.86-0.42-2.73l2.24-3.03C-608.93,686.19-607.7,685.99-606.83,686.64L-606.83,686.64z M-620.49,683.74l2.24-3.01
	c0.64-0.87,0.45-2.09-0.42-2.73s-2.09-0.45-2.73,0.42l-2.23,3.01c-0.64,0.87-0.45,2.09,0.42,2.73
	C-622.39,684.77-621.09,684.57-620.49,683.74z M-613.51,684.18l-2.23,3.01c-0.64,0.87-0.45,2.1,0.42,2.74
	c0.83,0.61,2.13,0.4,2.73-0.42l2.23-3.01c0.64-0.87,0.45-2.09-0.42-2.73C-611.65,683.12-612.87,683.31-613.51,684.18z
	 M-603.64,690.04c-0.35,0.84-1.31,2.01-1.96,2.89c0.43,0.22,0.86,0.31,1.25,0.31c1.5,0,2.5-1.42,1.15-2.77L-603.64,690.04z
	 M-617.46,681.3l-2.25,3.04c-0.64,0.87-0.43,2.07,0.43,2.71c0.85,0.62,2.13,0.42,2.72-0.4l2.25-3.04c0.64-0.86,0.45-2.09-0.42-2.73
	C-615.6,680.24-616.82,680.43-617.46,681.3L-617.46,681.3z M-582.14,679.05l8.14-2.16l-4.39-16.89l-8.25,2.48L-582.14,679.05z
	 M-589.02,664.3c-4.03,0.29-7.85-1.19-12.06-3.36c-0.93-0.48-1.99-0.86-3.03-0.86c-0.96,0-1.9,0.33-2.68,1.22
	c-2.84,3.22-4.49,6.06-7.87,8.03c-1.67,0.97,0.29,4.02,3.87,2.77c1.82-0.64,4.29-2.29,6.31-3.92c1.58-1.28,2.53-1.09,3.91,0.28
	c2.57,2.57,11.23,11.12,11.23,11.12c1.34-0.83,2.63-1.49,3.92-2.07C-585.43,677.52-589.02,664.3-589.02,664.3z M-627.86,662.48
	l-8.25-2.48l-4.39,16.89l8.14,2.16L-627.86,662.48z M-590.71,682.23c-1.34-1.48-10.35-10.34-11.96-11.94
	c-2.72,2.04-6.3,4.88-9.76,4.88c-2.61,0-4.85-1.54-5.45-3.75c-0.48-1.76,0.26-3.56,1.83-4.48c1.97-1.15,3.27-2.72,4.86-4.69
	c-4.86-3.07-9.01,1.92-14.27,1.96l-3.53,12.98c1.54,0.37,2.88,0.75,4.13,1.22l1.22-1.65c2.19-3,6.77-2.37,8.17,0.97
	c1.77,0.16,3.29,1.3,3.95,2.88c1.72,0.15,3.25,1.24,3.94,2.88c2.59,0.22,4.71,2.58,4.24,5.46l1.81,1.81c0.76,0.76,2,0.76,2.76,0
	c0.76-0.76,0.76-2,0-2.77l-3.5-3.51c-0.19-0.19-0.19-0.51,0.01-0.7c0.19-0.18,0.5-0.18,0.68,0.01l4.22,4.22c0.76,0.76,2,0.76,2.77,0
	c0.76-0.76,0.76-2,0-2.77l-5.2-5.2c-0.2-0.2-0.19-0.52,0.02-0.71c0.19-0.17,0.49-0.17,0.67,0.01l5.61,5.61c0.76,0.76,2,0.76,2.77,0
	C-589.95,684.23-589.95,682.99-590.71,682.23z"/>
<text transform="matrix(1 0 0 1 -483.5444 270.6377)" class="st6" style="font-family:'OpenSans-Bold'; font-size:13px;">SubScriber</text>
<path class="st2" d="M-452.15,235.61l1.98-1.83c2.32,1.12,3.79,1.97,6.39,3.83c4.89-5.55,8.13-8.37,14.14-12.11l0.64,1.48
	c-4.96,4.32-8.59,9.14-13.81,18.52C-446.04,241.7-448.19,239.28-452.15,235.61z M-434.14,236.31c0.08,0.55,0.14,1.12,0.14,1.69
	c0,6.2-5.05,11.25-11.25,11.25S-456.5,244.2-456.5,238s5.05-11.25,11.25-11.25c2.46,0,4.74,0.81,6.59,2.15
	c0.65-0.56,1.32-1.1,2-1.63c-2.36-1.89-5.34-3.03-8.59-3.03c-7.59,0-13.75,6.16-13.75,13.75s6.16,13.75,13.75,13.75
	s13.75-6.16,13.75-13.75c0-1.47-0.24-2.89-0.67-4.22C-432.83,234.57-433.48,235.41-434.14,236.31z"/>
<text transform="matrix(1 0 0 1 -457.2236 606.6377)" class="st3" style="font-family:'OpenSans-Bold'; font-size:10px;">SubScribers</text>
<path class="st3" d="M-431.11,575.92l1.73-1.6c2.02,0.98,3.3,1.72,5.57,3.34c4.27-4.85,7.09-7.3,12.34-10.57l0.56,1.29
	c-4.33,3.77-7.49,7.98-12.06,16.16C-425.78,581.23-427.66,579.12-431.11,575.92z M-415.4,576.52c0.07,0.48,0.12,0.97,0.12,1.48
	c0,5.41-4.41,9.82-9.82,9.82s-9.82-4.41-9.82-9.82s4.41-9.82,9.82-9.82c2.15,0,4.13,0.7,5.75,1.88c0.57-0.49,1.15-0.96,1.75-1.42
	c-2.06-1.65-4.66-2.64-7.5-2.64c-6.63,0-12,5.37-12,12s5.37,12,12,12c6.63,0,12-5.37,12-12c0-1.29-0.21-2.52-0.58-3.69
	C-414.25,575.01-414.82,575.74-415.4,576.52z"/>
<path class="st4" d="M-690,266l-12-9v5h-24v8h24v5L-690,266z"/>
<path class="st1" d="M-512,266l-12-9v5h-24v8h24v5L-512,266z"/>
<path id="Circle_2_" class="st4" d="M-768.5,326.06c-32.57,0-58.97-26.4-58.97-58.97c0-32.57,26.4-58.97,58.97-58.97
	c32.57,0,58.97,26.4,58.97,58.97C-709.53,299.65-735.93,326.06-768.5,326.06z"/>
<text transform="matrix(1 0 0 1 -803.8916 270.6377)" class="st6" style="font-family:'OpenSans-Bold'; font-size:13px;">Publisher</text>
<text transform="matrix(1 0 0 1 -786.5605 284.6377)"><tspan x="0" y="0" class="st6" style="font-family:'OpenSans'; font-size:10px;">Reliable</tspan><tspan x="-18.56" y="12" class="st6" style="font-family:'OpenSans'; font-size:12px;">Actor/Service</tspan></text>
<text transform="matrix(1 0 0 1 -826.6318 669.6377)" class="st6" style="font-family:'OpenSans'; font-size:12px;">Reliable Actor</text>
<rect x="-847" y="719" class="st4" width="117" height="39"/>
<text transform="matrix(1 0 0 1 -831.6416 743.6377)" class="st6" style="font-family:'OpenSans'; font-size:12px;">Reliable Service</text>
<rect x="-484" y="630" class="st3" width="117" height="39"/>
<text transform="matrix(1 0 0 1 -463.6318 654.6377)" class="st6" style="font-family:'OpenSans'; font-size:12px;">Reliable Actor</text>
<rect x="-484" y="738" class="st3" width="117" height="39"/>
<text transform="matrix(1 0 0 1 -463.6318 762.6377)" class="st6" style="font-family:'OpenSans'; font-size:12px;">Reliable Actor</text>
<rect x="-484" y="684" class="st3" width="117" height="39"/>
<text transform="matrix(1 0 0 1 -468.6416 708.6377)" class="st6" style="font-family:'OpenSans'; font-size:12px;">Reliable Service</text>
<text transform="matrix(1 0 0 1 -462.5605 284.6377)"><tspan x="0" y="0" class="st6" style="font-family:'OpenSans'; font-size:10px;">Reliable</tspan><tspan x="-18.56" y="12" class="st6" style="font-family:'OpenSans'; font-size:12px;">Actor/Service</tspan></text>
<path class="st2" d="M-765.07,237.52c0.85-1,1.35-2.25,1.35-3.6s-0.51-2.6-1.35-3.6l1.57-1.44c1.26,1.38,2.02,3.12,2.02,5.04
	s-0.77,3.66-2.02,5.04C-763.5,238.96-765.07,237.52-765.07,237.52z M-776.06,227.44l-1.57-1.44c-2.09,2.11-3.36,4.88-3.36,7.92
	s1.28,5.8,3.36,7.92l1.57-1.44c-1.67-1.75-2.7-4-2.7-6.48S-777.73,229.19-776.06,227.44z M-774.5,238.96l1.57-1.44
	c-0.85-1-1.35-2.25-1.35-3.6s0.51-2.6,1.35-3.6l-1.57-1.44c-1.26,1.38-2.02,3.12-2.02,5.04S-775.76,237.58-774.5,238.96z
	 M-760.36,226l-1.57,1.44c1.67,1.75,2.7,4,2.7,6.48s-1.02,4.73-2.7,6.48l1.57,1.44c2.09-2.12,3.36-4.88,3.36-7.92
	S-758.28,228.11-760.36,226z M-772.93,250c0.63-1.63,2.19-2.7,3.93-2.7s3.3,1.07,3.93,2.7h2.15l-5.08-13.27c1.16-0.41,2-1.51,2-2.82
	c0-1.66-1.34-3-3-3s-3,1.34-3,3c0,1.3,0.84,2.4,2,2.82l-5.04,13.27H-772.93z"/>
<text transform="matrix(1 0 0 1 -818.4136 606.6377)" class="st4" style="font-family:'OpenSans-Bold'; font-size:10px;">Publishers</text>
<path class="st4" d="M-785.07,577.52c0.85-1,1.35-2.25,1.35-3.6s-0.51-2.6-1.35-3.6l1.57-1.44c1.26,1.38,2.02,3.12,2.02,5.04
	s-0.77,3.66-2.02,5.04C-783.5,578.96-785.07,577.52-785.07,577.52z M-796.06,567.44l-1.57-1.44c-2.09,2.11-3.36,4.88-3.36,7.92
	c0,3.04,1.28,5.8,3.36,7.92l1.57-1.44c-1.67-1.75-2.7-4-2.7-6.47S-797.73,569.19-796.06,567.44z M-794.5,578.96l1.57-1.44
	c-0.85-1-1.35-2.25-1.35-3.6s0.51-2.6,1.35-3.6l-1.57-1.44c-1.26,1.38-2.02,3.12-2.02,5.04S-795.76,577.58-794.5,578.96z
	 M-780.36,566l-1.57,1.44c1.67,1.75,2.7,4,2.7,6.48s-1.02,4.73-2.7,6.47l1.57,1.44c2.09-2.11,3.36-4.88,3.36-7.92
	S-778.28,568.11-780.36,566z M-792.93,590c0.63-1.63,2.19-2.7,3.93-2.7s3.3,1.07,3.93,2.7h2.15l-5.08-13.27c1.16-0.41,2-1.51,2-2.82
	c0-1.66-1.34-3-3-3s-3,1.34-3,3c0,1.3,0.84,2.4,2,2.82l-5.04,13.27H-792.93z"/>
<path id="Circle_Outer_24_" class="st8" d="M-711,680.92c-6.58,0-11.92-5.34-11.92-11.92c0-6.58,5.34-11.92,11.92-11.92
	c6.58,0,11.92,5.34,11.92,11.92C-699.08,675.58-704.42,680.92-711,680.92z"/>
<g>
	<polygon class="st4" points="-711,669.69 -718.25,664.16 -703.75,664.16 	"/>
	<polygon class="st4" points="-711,671.25 -718.26,665.65 -718.26,673.84 -703.74,673.84 -703.74,665.65 	"/>
</g>
<path id="Circle_Outer_23_" class="st9" d="M-516,716.92c-6.58,0-11.92-5.34-11.92-11.92c0-6.58,5.34-11.92,11.92-11.92
	c6.58,0,11.92,5.34,11.92,11.92C-504.08,711.58-509.42,716.92-516,716.92z"/>
<g>
	<polygon class="st1" points="-516,705.69 -523.25,700.16 -508.75,700.16 	"/>
	<polygon class="st1" points="-516,707.25 -523.26,701.65 -523.26,709.84 -508.74,709.84 -508.74,701.65 	"/>
</g>
<path id="Circle_Outer_22_" class="st8" d="M-711,745.92c-6.58,0-11.92-5.34-11.92-11.92c0-6.58,5.34-11.92,11.92-11.92
	c6.58,0,11.92,5.34,11.92,11.92C-699.08,740.58-704.42,745.92-711,745.92z"/>
<path id="Circle_Outer_21_" class="st8" d="M-714,742.92c-6.58,0-11.92-5.34-11.92-11.92c0-6.58,5.34-11.92,11.92-11.92
	c6.58,0,11.92,5.34,11.92,11.92C-702.08,737.58-707.42,742.92-714,742.92z"/>
<g>
	<polygon class="st4" points="-714,731.69 -721.25,726.16 -706.75,726.16 	"/>
	<polygon class="st4" points="-714,733.25 -721.26,727.65 -721.26,735.84 -706.74,735.84 -706.74,727.65 	"/>
</g>
<path id="Circle_Outer_20_" class="st9" d="M-520,673.92c-6.58,0-11.92-5.34-11.92-11.92c0-6.58,5.34-11.92,11.92-11.92
	c6.58,0,11.92,5.34,11.92,11.92C-508.08,668.58-513.42,673.92-520,673.92z"/>
<path id="Circle_Outer_19_" class="st9" d="M-523,670.92c-6.58,0-11.92-5.34-11.92-11.92c0-6.58,5.34-11.92,11.92-11.92
	c6.58,0,11.92,5.34,11.92,11.92C-511.08,665.58-516.42,670.92-523,670.92z"/>
<path id="Circle_Outer_18_" class="st9" d="M-526,667.92c-6.58,0-11.92-5.34-11.92-11.92c0-6.58,5.34-11.92,11.92-11.92
	c6.58,0,11.92,5.34,11.92,11.92C-514.08,662.58-519.42,667.92-526,667.92z"/>
<g>
	<polygon class="st1" points="-526,656.69 -533.25,651.16 -518.75,651.16 	"/>
	<polygon class="st1" points="-526,658.25 -533.26,652.65 -533.26,660.84 -518.74,660.84 -518.74,652.65 	"/>
</g>
<path id="Circle_Outer_17_" class="st9" d="M-518,762.92c-6.58,0-11.92-5.34-11.92-11.92c0-6.58,5.34-11.92,11.92-11.92
	c6.58,0,11.92,5.34,11.92,11.92C-506.08,757.58-511.42,762.92-518,762.92z"/>
<path id="Circle_Outer_16_" class="st9" d="M-521,759.92c-6.58,0-11.92-5.34-11.92-11.92c0-6.58,5.34-11.92,11.92-11.92
	c6.58,0,11.92,5.34,11.92,11.92C-509.08,754.58-514.42,759.92-521,759.92z"/>
<path id="Circle_Outer_15_" class="st9" d="M-524,756.92c-6.58,0-11.92-5.34-11.92-11.92c0-6.58,5.34-11.92,11.92-11.92
	c6.58,0,11.92,5.34,11.92,11.92C-512.08,751.58-517.42,756.92-524,756.92z"/>
<g>
	<polygon class="st1" points="-524,745.69 -531.25,740.16 -516.75,740.16 	"/>
	<polygon class="st1" points="-524,747.25 -531.26,741.65 -531.26,749.84 -516.74,749.84 -516.74,741.65 	"/>
</g>
<path class="st0" d="M333.54,129.19c-0.86-9.13-3.15-17.84-6.66-25.92c-0.65-0.46-1.26-0.97-1.81-1.55
	c4.05,8.72,6.67,18.23,7.53,28.25C332.91,129.7,333.22,129.44,333.54,129.19z"/>
<g>
	<polygon class="st1" points="341,139.8 333.75,134.26 348.25,134.26 	"/>
	<polygon class="st1" points="341,141.36 333.74,135.75 333.74,143.95 348.26,143.95 348.26,135.75 	"/>
</g>
<g>
	<path class="st0" d="M328.3,167.61c2.3-6.01,3.94-12.34,4.83-18.91c-0.32-0.26-0.62-0.54-0.91-0.83c-0.9,7.11-2.71,13.94-5.28,20.4
		C327.37,168.03,327.83,167.81,328.3,167.61z"/>
	<path class="st0" d="M320.7,180.82c-14.8,24.42-41.62,40.79-72.2,40.79c-36.27,0-67.26-22.99-79.18-55.17l-0.83,0.64
		c12.14,32.4,43.42,55.54,80.02,55.54c30.56,0,57.4-16.15,72.49-40.35C320.87,181.79,320.77,181.31,320.7,180.82z"/>
</g>
<g>
	<polygon class="st1" points="333,179.8 325.75,174.26 340.25,174.26 	"/>
	<polygon class="st1" points="333,181.36 325.74,175.75 325.74,183.95 340.26,183.95 340.26,175.75 	"/>
</g>
</svg>
